<?xml version="1.0" encoding="UTF-8" standalone="no"?>
<svg
   xmlns:dc="http://purl.org/dc/elements/1.1/"
   xmlns:cc="http://creativecommons.org/ns#"
   xmlns:rdf="http://www.w3.org/1999/02/22-rdf-syntax-ns#"
   xmlns:svg="http://www.w3.org/2000/svg"
   xmlns="http://www.w3.org/2000/svg"
   xmlns:sodipodi="http://sodipodi.sourceforge.net/DTD/sodipodi-0.dtd"
   xmlns:inkscape="http://www.inkscape.org/namespaces/inkscape"
   width="151.70821mm"
   height="107.01398mm"
   viewBox="0 0 151.70821 107.01398"
   version="1.1"
   id="svg2421"
   inkscape:version="1.0.2 (e86c8708, 2021-01-15)"
   sodipodi:docname="2-supergeroi.svg">
  <defs
     id="defs2415" />
  <sodipodi:namedview
     id="base"
     pagecolor="#ffffff"
     bordercolor="#666666"
     borderopacity="1.0"
     inkscape:pageopacity="0.0"
     inkscape:pageshadow="2"
     inkscape:zoom="0.84906002"
     inkscape:cx="287.22506"
     inkscape:cy="197.48755"
     inkscape:document-units="mm"
     inkscape:current-layer="layer1"
     inkscape:document-rotation="0"
     showgrid="false"
     inkscape:window-width="1440"
     inkscape:window-height="765"
     inkscape:window-x="0"
     inkscape:window-y="25"
     inkscape:window-maximized="0"
     fit-margin-top="0"
     fit-margin-left="0"
     fit-margin-right="0"
     fit-margin-bottom="0" />
  <metadata
     id="metadata2418">
    <rdf:RDF>
      <cc:Work
         rdf:about="">
        <dc:format>image/svg+xml</dc:format>
        <dc:type
           rdf:resource="http://purl.org/dc/dcmitype/StillImage" />
        <dc:title></dc:title>
      </cc:Work>
    </rdf:RDF>
  </metadata>
  <g
     inkscape:label="Layer 1"
     inkscape:groupmode="layer"
     id="layer1"
     transform="translate(238.51911,-17.117006)">
    <g
       id="g637">
      <g
         id="g4375"
         transform="matrix(1,0,0,1.0074761,-338.37465,-26.069035)">
        <path
           fill="#a41e22"
           d="m 162.41794,71.573569 c 0.0265,0.264583 0.15875,0.47625 0.29105,0.687916 1.32291,2.143125 2.38125,4.445 3.175,6.852708 0.66145,-0.846666 1.34937,-1.719791 2.01083,-2.566458 0.0794,-0.105833 0.18521,-0.238125 0.21167,-0.370416 0.0264,-0.15875 -0.0265,-0.3175 -0.0794,-0.47625 -0.84667,-2.169584 -2.2225,-4.180417 -3.91583,-5.767917 2.64583,-0.211667 5.26521,-0.608542 7.85812,-1.190625 -0.3175,-1.666875 -0.635,-3.307292 -0.9525,-4.974167 -2.03729,1.455209 -4.23333,2.69875 -6.53521,3.730625 -0.34395,0.15875 -0.71437,0.3175 -0.97895,0.608542 -0.23813,0.291042 -0.34396,0.635 -0.4498,1.005417 -0.15875,0.582083 -0.34395,1.164166 -0.5027,1.74625 -0.10584,0.238125 -0.15875,0.47625 -0.1323,0.714375 z"
           id="path3540"
           style="stroke-width:0.264583" />
        <path
           fill-rule="evenodd"
           clip-rule="evenodd"
           fill="#6d1716"
           d="m 132.78461,87.713152 c -1.93146,0.608541 -3.20146,-0.740834 -5.29166,2.275416 -2.48709,3.571875 -5.60917,11.906252 -5.63563,17.859372 -0.0265,6.87917 2.77813,12.62063 7.9375,17.17146 7.43479,6.53521 17.85938,10.92729 27.59604,12.59417 -0.37042,-3.83646 2.61938,-6.64104 6.42938,-7.03792 3.81,-0.39687 7.69937,0.68792 11.50937,0.15875 3.75708,-0.52917 7.27604,-2.64583 9.44563,-5.76792 4.20687,-6.00604 3.06916,-14.10229 1.74625,-21.29895 -4.31271,1.95791 -9.41917,1.64041 -13.86417,0.0264 -4.47146,-1.61395 -8.38729,-4.444995 -12.03854,-7.461245 -2.54,-2.090208 -5.05354,-4.339167 -8.04334,-5.741458 -3.75708,-1.74625 -8.01687,-2.010834 -12.17083,-2.248959 -2.27541,-0.132291 -5.42396,-1.243541 -7.62,-0.529166 z"
           id="path3542"
           style="stroke-width:0.264583" />
        <path
           fill-rule="evenodd"
           clip-rule="evenodd"
           fill="#cd2027"
           d="m 143.97649,88.348152 c -0.0265,-1.984375 0.55562,-4.418542 0.52916,-4.418542 l -7.67291,-2.354792 c -0.0529,0.264584 -0.3175,1.11125 -0.60854,2.06375 -0.55563,1.005417 -0.92605,2.169584 -1.05834,3.280834 -0.0529,0.15875 -0.0794,0.264583 -0.0794,0.264583 -1.64042,0.79375 -4.20688,0.47625 -4.20688,0.47625 0,0 2.11667,4.365625 4.55084,5.847292 2.43416,1.481666 10.68916,-0.608542 10.68916,-0.608542 -1.24354,0.132292 -2.11666,-2.619375 -2.14312,-4.550833 z"
           id="path3544"
           style="stroke-width:0.264583" />
        <g
           id="g3552"
           transform="matrix(0.26458333,0,0,0.26458333,-36.204761,-92.944346)">
          <path
             fill-rule="evenodd"
             clip-rule="evenodd"
             fill="#cd2027"
             d="m 580.2,657.7 -15.6,19.6 57.3,26.2 c -4.3,15 -7.2,50.6 -8.7,73.8 -0.3,4.5 84.7,11.8 84.9,2.9 0.3,-18.8 2,-57.5 7.5,-53.4 l 27.2,19 6.1,5.1 14.6,-17 c 0,0 -22.7,-22 -48,-37.7 -15.1,-9.3 -101,-28.8 -125.3,-38.5 z"
             id="path3546" />
          <path
             fill-rule="evenodd"
             clip-rule="evenodd"
             fill="#f8ca10"
             d="m 587,658 -7.9,-3.1 c -8.6,-2.9 -59.5,-20.3 -64.4,-13.9 -2.8,3.7 8.2,10.6 8.2,10.6 0,0 -5.8,7.2 -4.5,9.8 3.8,7.8 19.6,0.5 27.9,6.6 l 21.3,13.9 z"
             id="path3548" />
          <path
             fill-rule="evenodd"
             clip-rule="evenodd"
             fill="#f8ca10"
             d="m 726.7,747.5 30,18.5 c 0,0 -1.9,8.4 0.5,10.1 2.3,1.7 7.8,2.1 7.8,2.1 0,0 1.7,4.4 4.8,5 3.1,0.6 5.4,-0.3 5.4,-0.3 0,0 1.7,1.2 4.2,0.1 2.5,-1.1 2.9,-1.8 2.9,-1.8 0,0 2.6,-0.1 3.9,-2.1 1.3,-1.9 -2.3,-13.5 -3.2,-15.5 -0.9,-2 -30.3,-37.3 -32.2,-37 -11.5,2.3 -19.4,10.7 -24.1,20.9 z"
             id="path3550" />
        </g>
        <path
           fill="#fbc7b1"
           d="m 127.99565,62.948152 c -3.6777,11.482917 2.06375,20.028958 11.40355,22.648333 9.36625,2.592917 18.65312,-1.42875 21.58999,-12.012083 2.56646,-9.233958 1.69334,-20.611042 -11.48291,-24.28875 -13.54667,-3.783541 -18.52083,4.339167 -21.51063,13.6525 z"
           id="path3556"
           style="stroke-width:0.264583" />
        <circle
           fill="#fbc7b1"
           cx="160.4865"
           cy="75.410027"
           r="3.4924998"
           id="circle3558"
           style="stroke-width:0.264583" />
        <path
           fill="#c97050"
           d="m 140.72211,71.282527 c 0.3175,0.05292 0.39688,-0.47625 0.0529,-0.529167 -1.16417,-0.211666 -2.16958,0.449792 -2.35479,1.640417 -0.21167,1.217083 0.66146,2.196042 1.79916,2.354792 0.34396,0.05292 0.39688,-0.47625 0.0529,-0.529167 -0.87312,-0.105833 -1.45521,-0.79375 -1.37583,-1.693333 0.10583,-0.9525 0.9525,-1.402292 1.82562,-1.243542 z"
           id="path3560"
           style="stroke-width:0.264583" />
        <ellipse
           transform="rotate(-165.25644)"
           fill="#f6a2b3"
           cx="-167.55788"
           cy="-33.892666"
           rx="2.8046572"
           ry="1.9579682"
           id="ellipse3564"
           style="stroke-width:0.26459" />
        <ellipse
           transform="rotate(-159.4339)"
           fill="#f6a2b3"
           cx="-147.23045"
           cy="-19.002632"
           rx="2.8046806"
           ry="1.9579846"
           id="ellipse3566"
           style="stroke-width:0.264592" />
        <path
           fill="#be892c"
           d="m 160.64524,72.261485 c 1.95791,-5.741458 2.43416,-13.361458 -0.87313,-18.441458 -3.30729,-5.08 -9.36625,-8.334375 -15.42521,-8.016875 -8.1227,0.449792 -15.50458,7.117292 -15.71625,15.266458 2.80459,-4.60375 5.34459,-7.14375 8.89,-9.763124 1.42875,-0.105834 2.91042,-0.211667 4.28625,0.238125 1.37584,0.449791 2.64584,1.508124 2.8575,2.936874 0.21167,1.42875 -1.00541,3.01625 -2.43416,2.831042 0.76729,1.164167 2.72521,0.767292 3.51896,-0.396875 0.79375,-1.164167 0.74083,-2.645833 0.66145,-4.048125 3.175,0.79375 6.19125,2.090208 8.62542,4.259792 3.14854,2.778125 5.23875,10.080625 5.60917,15.134166 z"
           id="path3568"
           style="stroke-width:0.264583" />
        <path
           fill="#be892c"
           d="m 166.51899,63.953569 c -0.3175,-0.661459 -0.7673,-1.243542 -1.27,-1.772709 0.52916,3.33375 0,6.799792 -1.53459,9.816042 -0.47625,0.926042 -3.59833,5.291667 -3.65125,4.259792 -0.0265,-0.529167 0.50271,-4.180417 0.58209,-5.000625 0.3175,-3.571875 0.58208,-7.249584 -0.50271,-10.689167 -1.32292,-4.153958 -4.60375,-7.514167 -8.54604,-9.339791 -3.94229,-1.825625 -8.49313,-2.143125 -12.75292,-1.349375 -0.9525,0.185208 -1.87854,0.423333 -2.69875,0.899583 -1.32292,0.79375 -2.16958,2.169583 -2.96333,3.4925 -1.40229,2.328333 -3.14854,4.445 -4.52438,6.773333 -1.00541,-4.497917 2.43417,-11.773958 6.16479,-14.499166 3.73063,-2.725209 8.49313,-3.624792 13.12334,-3.677709 4.73604,-0.05292 9.92187,2.883959 12.35604,7.196667 0.3175,-0.9525 0.39687,-1.957917 0.29104,-2.963333 1.13771,0.661458 1.79917,2.06375 1.5875,3.360208 1.42875,0.105833 2.80458,0.529167 4.04812,1.27 -0.87312,0.05292 -1.74625,0.396875 -2.46062,0.899583 2.61937,3.095625 3.67771,7.434792 2.75167,11.324167 z"
           id="path3570"
           style="stroke-width:0.264583" />
        <path
           fill-rule="evenodd"
           clip-rule="evenodd"
           fill="#cd2027"
           d="m 146.51649,132.93044 c 0.29104,0.0794 0.58208,-0.0265 0.84666,-0.13229 1.74625,-0.58208 3.54542,-0.97896 5.37104,-1.16417 -1.1377,-4.39208 -3.01625,-9.10166 -4.52437,-14.02291 -0.0529,-0.21167 -0.66146,-0.0265 -0.84667,-0.13229 -0.15875,-0.0794 -0.3175,-0.10584 -0.5027,-0.1323 -5.76792,-0.58208 -11.48292,-1.5875 -17.09209,-2.98979 -1.21708,-0.29104 -2.43416,-0.635 -3.67771,-0.47625 -0.76729,6.32354 -0.71437,12.77938 0.15875,19.07646 1.79917,-0.0265 4.65667,0 6.45584,0.10583 -0.15875,-2.48708 -0.10584,-5.55625 1.03187,-7.85812 0.44979,-0.92604 1.21709,-1.74625 2.19604,-2.11667 4.65667,-1.71979 7.80521,6.40292 9.78959,9.15459 0.21166,0.3175 0.44979,0.60854 0.79375,0.68791 z"
           id="path3572"
           style="stroke-width:0.264583" />
        <path
           fill-rule="evenodd"
           clip-rule="evenodd"
           fill="#faa21f"
           d="m 125.95836,111.94898 c 7.54063,1.27 15.02834,2.56646 22.5425,1.16417 0.0794,1.5875 0.18521,3.175 0.26459,4.73604 -7.99042,1.37584 -15.26646,1.45521 -22.9923,-1.03187 -0.0794,-1.98438 -0.0264,-3.30729 0.18521,-4.86834 z"
           id="path3574"
           style="stroke-width:0.264583" />
        <path
           fill-rule="evenodd"
           clip-rule="evenodd"
           fill="#f8ca10"
           d="m 127.28128,148.48794 c 1.95792,0.0794 3.91583,0.15875 5.84729,-0.0529 0.66146,-0.0794 1.40229,-0.23813 1.71979,-0.82021 0.21167,-0.42334 0.15875,-0.89959 0.0794,-1.37584 -0.71438,-4.60375 -1.16417,-8.54604 -1.29646,-13.17625 0,-0.1852 -0.13229,-0.34395 -0.3175,-0.37041 -2.56646,-0.3175 -5.18583,-0.42334 -7.77875,-0.34396 -0.23813,0 -0.39688,0.21167 -0.34396,0.44979 0.76729,3.73063 1.87854,6.77333 3.28083,10.37167 -0.92604,0.39687 -1.87854,0.79375 -2.80458,1.19062 -0.89958,0.37042 -1.87854,0.87313 -1.95792,1.905 -0.0264,0.55563 0.23813,1.05834 0.635,1.42875 0.82021,0.68792 1.905,0.74084 2.93688,0.79375 z"
           id="path3576"
           style="stroke-width:0.264583" />
        <path
           fill-rule="evenodd"
           clip-rule="evenodd"
           fill="#f8ca10"
           d="m 159.19003,144.57211 c -0.92604,-0.74083 -2.72521,-1.85208 -3.91584,-2.06375 -0.79375,-4.18042 -1.16416,-6.79979 -1.93145,-10.92729 -0.0265,-0.18521 -0.18521,-0.3175 -0.37042,-0.29104 -2.61938,0 -5.3975,0.13229 -7.77875,0.89958 -0.18521,0.0529 -0.3175,0.26458 -0.23812,0.47625 1.48166,4.63021 3.06916,10.13354 5.05354,14.49917 0.13229,0.29104 0.26458,0.58208 0.52916,0.74083 0.23813,0.15875 0.52917,0.21167 0.82021,0.23812 1.77271,0.23813 3.83646,0.18521 5.90021,0.10584 1.74625,-0.0794 2.43417,0.18521 2.91042,-0.50271 0.58208,-0.82021 -0.18521,-2.56646 -0.97896,-3.175 z"
           id="path3578"
           style="stroke-width:0.264583" />
        <path
           fill-rule="evenodd"
           clip-rule="evenodd"
           fill="#6d1716"
           d="m 131.56753,85.331902 c 0.18521,1.322916 0.84667,5.000625 1.98437,5.688541 2.75167,1.719792 6.0325,2.301875 9.26042,2.434167 1.21708,0.05292 2.93688,-2.434167 3.99521,-3.01625 0.44979,-0.238125 0.87312,-0.873125 0.50271,-1.217083 -0.15875,-0.132292 -0.50271,-0.396875 -0.71438,-0.423334 -3.99521,-0.396875 -7.48771,-0.899583 -11.21833,-2.407708 -1.11125,-0.47625 -2.59292,-1.11125 -3.81,-1.058333 z"
           id="path3580"
           style="stroke-width:0.264583" />
        <path
           fill-rule="evenodd"
           clip-rule="evenodd"
           fill="#faa21f"
           d="m 140.69565,98.21711 c -1.69333,-0.608542 -3.20145,-0.926042 -4.70958,-1.534583 -0.635,1.190625 -1.13771,2.037291 -1.66687,3.175 0.92604,0.264583 1.79916,0.423333 2.77812,0.687913 -0.66146,1.13771 -0.97896,1.71979 -1.98437,3.38667 1.00541,0.0265 1.7727,0.0265 2.61937,0 -0.52917,1.56104 -0.635,2.11667 -1.16417,3.75708 1.45521,-1.71979 2.6723,-3.46604 3.9423,-5.31812 -0.60855,-0.13229 -1.50813,-0.18521 -2.09021,-0.3175 0.89958,-1.48167 1.40229,-2.381252 2.27541,-3.83646 z"
           id="path3582"
           style="stroke-width:0.264583" />
        <circle
           fill-rule="evenodd"
           clip-rule="evenodd"
           fill="#cd2027"
           cx="136.25066"
           cy="116.28815"
           r="1.9314584"
           id="circle3584"
           style="stroke-width:0.264583" />
        <path
           fill="#cd2027"
           d="m 131.3294,58.132735 c -0.23812,-0.07937 -0.5027,-0.185208 -0.74083,-0.132291 -0.34396,0.07937 -0.47625,0.47625 -0.66146,0.767291 -1.08479,1.852084 -2.01083,3.33375 -2.64583,6.535209 4.47146,2.566458 9.49854,3.995208 14.52562,5.212291 7.24959,1.772709 14.57854,3.201459 21.96042,4.28625 0.97896,-2.460625 1.45521,-5.106458 1.37583,-7.752291 -0.0529,-1.11125 -9.63083,-2.672292 -10.68916,-2.963334 -5.76792,-1.561041 -21.14021,-5.212291 -23.12459,-5.953125 z"
           id="path3586"
           style="stroke-width:0.264583" />
        <path
           fill="#fbc7b1"
           d="m 154.16294,67.604819 c -0.29104,-1.190625 -1.48166,-2.2225 -2.8575,-2.487084 -0.79375,-0.15875 -1.61395,-0.05292 -2.27541,0.264584 -1.29646,0.608541 -1.87854,2.143125 -1.27,3.386666 0.50271,1.031875 1.71979,1.799167 2.98979,1.984375 0.3175,0.05292 0.635,0.07937 0.92604,0.05292 0.26458,-0.02646 0.52917,-0.07937 0.76729,-0.185208 1.29646,-0.47625 2.01084,-1.799167 1.71979,-3.01625 z"
           id="path3588"
           style="stroke-width:0.264583" />
        <ellipse
           transform="rotate(-164.43632)"
           fill="#472710"
           cx="-162.9256"
           cy="-25.048403"
           rx="1.7461904"
           ry="2.0636797"
           id="ellipse3590"
           style="stroke-width:0.264574" />
        <path
           fill="#fbc7b1"
           d="m 140.11357,64.429819 c -0.37042,-1.190625 -1.61396,-2.143125 -3.01625,-2.301875 -0.79375,-0.105834 -1.61396,0.05292 -2.27542,0.423333 -1.27,0.714375 -1.74625,2.301875 -1.05833,3.518958 0.55563,1.005417 1.82563,1.693334 3.09563,1.825625 0.3175,0.02646 0.635,0.02646 0.92604,-0.02646 0.26458,-0.05292 0.52916,-0.132292 0.74083,-0.238125 1.32292,-0.582083 1.95792,-1.984375 1.5875,-3.201458 z"
           id="path3592"
           style="stroke-width:0.264583" />
        <ellipse
           transform="rotate(-160.20781)"
           fill="#472710"
           cx="-150.3494"
           cy="-14.80666"
           rx="1.7462"
           ry="2.0636909"
           id="ellipse3594"
           style="stroke-width:0.264576" />
        <path
           fill="#ffffff"
           d="m 136.06545,75.410027 c -0.3175,-0.05292 -0.58209,0.264583 -0.58209,0.608542 0.0529,2.645833 2.32834,4.947708 5.3975,5.371041 3.06917,0.423333 5.84729,-1.243542 6.58813,-3.757083 0.10583,-0.343958 -0.0794,-0.714375 -0.39688,-0.740833 z"
           id="path3596"
           style="stroke-width:0.264583" />
      </g>
      <g
         id="g4547"
         transform="matrix(1.0000019,0,0,1.0000019,144.40563,-139.96079)">
        <path
           fill="#8e361e"
           d="m -241.98635,202.56878 c -0.8202,-2.2225 -3.96875,-3.36021 -6.19125,-2.24896 1.13771,-6.72042 2.30188,-13.57312 1.29646,-20.32 -1.61396,-10.84791 -8.94291,-21.69583 -21.14021,-21.35187 -4.73604,0.29104 -6.5352,3.46604 -6.5352,3.46604 0,0 -4.15396,-0.635 -6.985,1.45521 -4.52438,3.30729 -6.50875,9.02229 -7.54063,14.63146 -0.66146,3.57187 -0.58208,8.91645 -0.10583,12.48833 0.29104,2.24896 0.42333,8.12271 1.93146,9.86896 -1.24355,-1.42875 -3.96875,-1.03188 -5.13292,0.47625 -1.16417,1.50812 -1.03188,3.62479 -0.18521,5.29166 0.52917,1.03188 1.40229,2.01084 2.61938,2.16959 -1.5875,1.21708 -1.50813,3.88937 0.15875,5.00062 1.98437,1.32292 4.70958,0.29104 6.87916,-0.74083 1.19063,-0.55563 2.35479,-1.13771 3.54542,-1.69334 -0.18521,1.95792 1.69333,3.65125 3.73062,4.07459 2.0373,0.42333 4.18042,-0.13229 6.1648,-0.74084 2.01083,-0.60854 4.04812,-1.29645 6.13833,-1.16416 2.46062,0.15875 4.68312,1.40229 6.985,2.19604 2.80458,0.9525 6.11187,1.19062 8.70479,-0.23813 2.59292,-1.42875 3.99521,-4.89479 2.32833,-7.22312 2.46063,-0.42333 4.15396,-3.175 3.33375,-5.3975 z"
           id="path3602"
           style="stroke-width:0.264583" />
        <g
           id="g3608"
           transform="matrix(0.26458333,0,0,0.26458333,-558.71905,22.149407)">
          <g
             id="g3606">
            <path
               fill="#fbc7b1"
               d="m 1209.6,644.6 c -0.4,-0.3 -0.9,-0.6 -1.4,-0.7 -0.2,0 -0.7,0.1 -0.7,0.1 -0.6,0.1 -0.7,0.2 -1.1,0.4 -1,0.4 -2,1 -2.8,1.6 -8.5,6.2 -16.3,13.3 -24.8,19.6 -8.8,6.6 -17.8,13 -26.8,19.4 -4.5,3.2 -9,6.2 -13.7,9.1 1.6,-0.4 3.1,0.2 4.2,1.4 3.6,3.8 7.1,7.7 10.6,11.6 2.8,-1.9 5.5,-3.9 8.1,-6 20.8,-16.2 42.2,-34.7 53,-49.4 0.5,-0.7 0.5,-0.8 0.7,-1.2 -1,-2.2 -3,-4.1 -5.3,-5.9 z"
               id="path3604" />
          </g>
        </g>
        <path
           fill="#07a580"
           d="m -255.13614,211.1942 c -1.74625,-1.66688 -4.28625,-2.14313 -6.64104,-2.61938 -2.8575,-0.55562 -5.76792,-0.89958 -8.67833,-1.03187 -2.67229,-0.10584 -5.50334,0 -7.67292,1.53458 -2.14312,1.50812 -3.22792,4.10104 -4.18042,6.53521 -1.4552,3.67771 -2.91041,7.38187 -4.36562,11.05958 -2.43417,6.16479 -4.89479,12.48833 -4.94771,19.10292 6.48229,-3.4925 14.23458,-3.43959 21.59,-3.06917 8.04333,0.39688 16.32479,1.11125 23.495,4.73604 0.39688,-2.59291 -0.89958,-5.10646 -1.64042,-7.62 -0.60854,-2.03729 -0.84666,-4.18041 -1.05833,-6.29708 -0.37042,-3.33375 -0.74083,-6.64104 -1.08479,-9.97479 -0.50271,-4.49792 -2.2225,-9.86896 -4.81542,-12.35604 z"
           id="path3612"
           style="stroke-width:0.264583" />
        <path
           fill="#3cbca0"
           d="m -241.77468,245.96045 c -0.0794,0.47625 -0.26458,0.92604 -0.58208,1.27 -2.19604,2.4077 -3.20146,3.0427 -6.32354,4.1275 -0.52917,-8.89 -1.61396,-12.75292 -2.64584,-18.44146 -1.40229,-7.77875 -3.62479,-14.76375 -4.84187,-21.37834 0.635,-0.10583 0.92604,-1.32291 1.45521,-0.635 0.92604,1.27 2.48708,4.39209 2.96333,5.42396 4.1275,8.96938 6.93208,18.46792 9.73667,27.91354 0.15875,0.55563 0.3175,1.13771 0.23812,1.7198 z"
           id="path3614"
           style="stroke-width:0.264583" />
        <path
           fill="#3cbca0"
           d="m -296.04072,243.5792 c 0.0265,0.47625 0.18521,0.9525 0.44979,1.32291 1.98438,2.59292 2.91042,3.30729 5.95313,4.65667 1.29645,-8.81063 2.7252,-12.56771 4.23333,-18.15042 2.06375,-7.64646 4.10104,-12.83229 5.90021,-19.31458 -1.71979,-0.44979 -3.14854,1.29646 -4.02167,2.83104 -4.89479,8.5725 -8.51958,17.78 -12.14437,26.96104 -0.21167,0.55563 -0.42334,1.11125 -0.37042,1.69334 z"
           id="path3616"
           style="stroke-width:0.264583" />
        <path
           fill="#fbc7b1"
           d="m -265.58718,239.87503 c 1.40229,0.44979 2.06375,2.06375 2.48708,3.4925 1.37584,4.60375 2.48709,11.53583 3.28084,16.27187 2.01083,-0.15875 4.04812,-0.34395 6.05896,-0.5027 -0.84667,-7.62 -1.24355,-17.40959 -2.51355,-24.95021 -5.15937,-0.55563 -10.95375,-0.89959 -16.13958,-0.92604 -2.38125,-0.0265 -4.84187,0.0529 -6.985,1.08479 -0.37042,7.54062 -0.97896,17.30375 -1.79917,24.79146 2.24896,0.10583 4.49792,0.21166 6.74688,0.3175 0.37042,-4.97417 1.82562,-12.09146 4.23333,-16.45709 0.97896,-1.79916 2.72521,-3.73062 4.63021,-3.12208 z"
           id="path3618"
           style="stroke-width:0.264583" />
        <path
           fill="#fbc7b1"
           d="m -288.15614,218.8142 c 0.23813,-1.74625 1.40229,-3.3073 2.46063,-4.68313 1.00541,-1.29646 2.27541,-2.38125 3.62479,-3.30729 1.03187,-0.71438 2.56646,-0.18521 3.175,0.82021 0.68792,1.16416 0.21167,2.43416 -0.82021,3.175 -1.27,0.89958 -2.51354,2.06375 -3.30729,3.41312 -0.39688,0.66146 -0.71438,1.42875 -0.58208,2.19604 0.1852,1.03188 1.5875,2.32834 2.38125,2.91042 0.13229,0.0794 0.23812,0.18521 0.37041,0.26458 1.00542,0.74084 1.21709,1.53459 0.52917,2.72521 -0.58208,1.00542 -1.77271,1.37584 -2.80458,0.635 -1.32292,-0.97896 -2.88396,-1.77271 -3.88938,-3.09562 -1.19062,-1.48167 -1.37583,-3.28084 -1.13771,-5.05354 z"
           id="path3620"
           style="stroke-width:0.264583" />
        <path
           fill="#ccd72a"
           d="m -283.44655,239.26649 c 0.0794,0.23812 0.29104,0.37041 0.5027,0.50271 3.70417,2.32833 8.01688,3.57187 12.35605,3.91583 4.33916,0.34396 8.73125,-0.18521 12.96458,-1.24354 1.56104,-0.39688 3.12208,-0.87313 4.39208,-1.82563 0.26459,-0.18521 0.50271,-0.42333 0.60854,-0.71437 0.1323,-0.39688 0,-0.79375 -0.13229,-1.19063 -1.03187,-2.93687 -2.19604,-5.84729 -3.51896,-8.67833 -0.10583,-0.26458 -0.23812,-0.52917 -0.44979,-0.71438 -0.29104,-0.26458 -0.71437,-0.3175 -1.11125,-0.37041 -6.93208,-0.89959 -14.15521,-1.74625 -20.74333,0.66146 -0.3175,0.10583 -0.635,0.23812 -0.87313,0.47625 -0.26458,0.23812 -0.42333,0.58208 -0.55562,0.89958 -1.19063,2.56646 -2.69875,5.00062 -3.38667,7.72583 -0.0529,0.18521 -0.10583,0.37042 -0.0529,0.55563 z"
           id="path3622"
           style="stroke-width:0.264583" />
        <path
           fill="#ccd72a"
           d="m -254.31593,202.91274 c -0.44979,-0.39688 -0.79375,-0.10584 -1.21708,0.10583 -1.93146,0.9525 -4.10104,1.21708 -6.24417,1.27 -1.00542,0.0265 -2.06375,0.0794 -3.06917,-0.0529 -1.03187,-0.13229 -2.06375,-0.23812 -3.09562,-0.26458 -3.14854,-0.0794 -9.525,1.45521 -9.65729,1.48167 0,0.0265 -8.01688,5.79437 -7.54063,6.50875 0.92604,1.42875 3.01625,3.83646 4.31271,4.70958 0.42333,0.26458 3.25438,-2.61937 3.43958,-2.77812 -0.0264,0.13229 -1.74625,17.93875 -1.64041,18.07104 0.13229,0.18521 15.05479,1.13771 22.88646,-0.68792 -0.23813,-4.28625 -1.00542,-12.72646 -1.45521,-16.80104 -0.18521,-1.77271 0.55562,-1.53458 1.74625,-2.30188 1.40229,-0.92604 3.04271,-2.06375 4.68312,-3.33375 0.23813,-0.1852 -1.03187,-2.64583 -1.19062,-2.91041 -0.47625,-0.97896 -1.40229,-2.16959 -1.95792,-3.01625 z"
           id="path3624"
           style="stroke-width:0.264583" />
        <path
           fill="#3cbca0"
           d="m -255.87697,230.40295 c -4.41854,1.19062 -9.07521,0.55562 -13.6525,0.8202 -1.53458,0.0794 -8.46667,-0.15875 -10.23938,-0.87312 -0.29104,-1.03188 -0.3175,-2.16958 -0.0529,-3.22792 7.9375,0.21167 15.875,0.42334 23.8125,0.60854 0.0265,0.87313 0.0794,1.77271 0.13229,2.6723 z"
           id="path3626"
           style="stroke-width:0.264583" />
        <path
           fill="#c1306b"
           d="m -281.75322,260.22149 c -1.00542,0.13229 -1.98438,0.44979 -2.88396,0.92604 -0.23812,0.13229 -0.47625,0.26458 -0.60854,0.50271 -0.23813,0.42333 -0.0265,0.97896 0.37042,1.27 0.37041,0.29104 0.87312,0.37041 1.34937,0.44979 2.54,0.34396 5.13292,0.3175 7.64646,-0.0794 0.21167,-0.0265 0.42333,-0.0794 0.60854,-0.1852 0.3175,-0.21167 0.44979,-0.635 0.52917,-1.00542 0.71437,-2.98979 1.42875,-5.95313 2.11666,-8.96938 -2.7252,-0.60854 -5.50333,-0.89958 -8.28145,-0.87312 -0.10584,0 -0.26459,0 -0.3175,0.10583 -0.0529,0.0529 -0.0529,0.15875 -0.0529,0.23813 -0.15875,2.54 -0.3175,5.08 -0.47625,7.62 z"
           id="path3628"
           style="stroke-width:0.264583" />
        <path
           fill="#c1306b"
           d="m -253.41635,260.77711 c 0.97896,0.21167 1.93146,0.60854 2.77813,1.16417 0.21167,0.13229 0.44979,0.3175 0.55562,0.55562 0.21167,0.42334 -0.0794,0.97896 -0.47625,1.24355 -0.39687,0.26458 -0.89958,0.29104 -1.37583,0.3175 -2.56646,0.13229 -5.13292,-0.1323 -7.62,-0.74084 -0.21167,-0.0529 -0.42333,-0.10583 -0.58208,-0.23812 -0.3175,-0.23813 -0.39688,-0.66146 -0.44979,-1.03188 -0.47625,-3.04271 -0.89959,-6.05896 -1.32292,-9.10166 2.75167,-0.37042 5.55625,-0.42334 8.33437,-0.1323 0.10584,0 0.23813,0.0265 0.3175,0.1323 0.0529,0.0794 0.0529,0.15875 0.0529,0.23812 -0.0529,2.48708 -0.13229,5.05354 -0.21167,7.59354 z"
           id="path3630"
           style="stroke-width:0.264583" />
        <path
           fill="#c1306b"
           d="m -277.0701,228.8419 c -0.0264,-0.55562 -0.15875,-1.1377 -0.34395,-1.66687 -0.26459,-0.71438 -3.83646,-5.34458 -4.02167,-5.10646 -0.58208,0.82021 -1.13771,1.69333 -1.56104,2.24896 -0.66146,0.87312 -1.00542,1.61396 -1.56104,2.59292 -0.0529,0.0794 -0.0265,0.15875 0.0529,0.21166 1.34938,0.97896 2.77813,1.82563 4.28625,2.56646 -0.26458,0.0794 -0.55562,0.0794 -0.84666,0.0265 -0.84667,-0.13229 -1.24355,1.00542 -0.74084,1.5875 0.58209,0.635 2.11667,0.68792 2.93688,0.44979 0.71437,-0.23812 1.87854,-1.40229 1.79916,-2.91042 z"
           id="path3632"
           style="stroke-width:0.264583" />
        <g
           id="g3640"
           transform="matrix(0.26458333,0,0,0.26458333,-558.71905,22.149407)">
          <path
             fill="#fbc7b1"
             d="m 1162.9,624.1 c -0.6,-0.3 -0.9,-1.3 -1,-2.6 2,-3.6 1.2,-8.5 0.7,-12.3 -2.7,-17.4 -16.1,-35.7 -31.1,-44.6 -9.5,-5.6 -21.4,-8.4 -32.4,-8.1 -5.7,0.2 -13.3,-0.8 -17.9,3 -0.2,-0.3 -0.4,-0.7 -0.5,-1 0,-0.1 0,-0.1 -0.1,-0.2 -0.2,-0.6 -12.4,5.3 -13.5,5.9 -4.4,2.5 -8.4,5.6 -12,9.1 -3.6,3.4 -6.7,7.3 -9.4,11.4 -1.8,2.8 -5,4.3 -6.9,7.2 -3.4,5.2 -4,31.1 -3.1,37.8 4,28.8 26.1,51.1 53.4,55.5 l 0.2,3.6 c 0.2,2.3 4.8,2.2 10.8,1.9 0,0 11.4,-0.6 11.1,-3.6 l -0.1,-2.3 c 0.1,0.7 14.9,-4.9 16.2,-5.5 5.1,-2.6 9.9,-5.8 14.1,-9.7 4.2,-3.8 7.9,-8.2 11,-13 1.6,-2.5 3,-5.2 4.2,-7.9 2.2,-5.1 3.9,-10.8 5.2,-16.4 0.3,-0.9 1.9,-7.8 1.1,-8.2 z"
             id="path3634" />
          <path
             fill="#fbc7b1"
             d="m 1045.6,623.9 c 1.3,7.5 -4.6,14.3 -12.2,14.1 -5.7,-0.2 -10.5,-4.4 -11.5,-10 -1.3,-7.5 4.6,-14.3 12.2,-14.1 5.7,0.2 10.5,4.4 11.5,10 z"
             id="path3636" />
          <circle
             fill="#fbc7b1"
             cx="1162.4"
             cy="625.90002"
             r="12"
             id="circle3638" />
        </g>
        <g
           id="g3644"
           transform="matrix(0.26458333,0,0,0.26458333,-558.71905,22.149407)">
          <path
             fill="#c97050"
             d="m 1103.9,639.7 c 0,1.2 1.8,1.1 1.8,-0.1 0.1,-4 -2.8,-7.1 -6.9,-7.1 -4.2,0 -7.1,3.5 -7,7.5 0,1.2 1.9,1.1 1.8,-0.1 -0.1,-3 1.9,-5.4 5,-5.6 3.3,-0.2 5.4,2.4 5.3,5.4 z"
             id="path3642" />
        </g>
        <ellipse
           transform="rotate(1.7547642)"
           fill="#f6a2b3"
           cx="-272.91202"
           cy="199.87564"
           rx="2.6457512"
           ry="1.8520257"
           id="ellipse3646"
           style="stroke-width:0.264575" />
        <ellipse
           transform="rotate(1.7547642)"
           fill="#f6a2b3"
           cx="-251.07574"
           cy="198.96851"
           rx="2.6457512"
           ry="1.8520257"
           id="ellipse3648"
           style="stroke-width:0.264575" />
        <g
           id="g3654"
           transform="matrix(0.26458333,0,0,0.26458333,-558.71905,22.149407)">
          <ellipse
             transform="matrix(0.9994,-0.03479039,0.03479039,0.9994,-20.9383,37.423)"
             fill="#472710"
             cx="1064.9"
             cy="620.40002"
             rx="6.5999999"
             ry="7.8000002"
             id="ellipse3650" />
          <ellipse
             transform="matrix(0.9994,-0.03479039,0.03479039,0.9994,-20.8981,39.7335)"
             fill="#472710"
             cx="1131.3"
             cy="620.40002"
             rx="6.5999999"
             ry="7.8000002"
             id="ellipse3652" />
        </g>
        <path
           fill="#fbc7b1"
           d="m -272.88968,205.18815 c 0.84667,1.27 2.2225,2.16959 3.70417,2.48709 1.48166,0.3175 3.04271,0 4.445,-0.60854 0.97896,-0.42334 3.175,-2.54 2.75166,-2.96334 -0.0794,-0.0529 -2.98979,-0.21166 -5.82083,-0.13229 -2.35479,0.0529 -4.65667,0.34396 -5.13292,0.50271 -0.10583,0.0265 0.0265,0.0265 -0.0264,0.10583 -0.10584,0.13229 -0.0265,0.47625 0.0794,0.60854 z"
           id="path3656"
           style="stroke-width:0.264583" />
        <path
           fill="#07a580"
           d="m -272.96905,204.47378 c 0.13229,1.5875 0.37041,3.43958 1.19062,4.81542 0.82021,1.37583 2.24896,2.46062 3.86292,2.56645 2.30187,0.1323 3.86291,-2.38125 4.65666,-4.20687 0.47625,-1.11125 0.87313,-2.35479 1.0848,-3.54542 0.37041,-0.0265 2.27541,-0.15875 3.33375,-0.0529 0,2.4077 -1.61396,4.84187 -3.46605,6.42937 -1.08479,0.92604 -2.30187,1.74625 -3.6777,2.11667 -2.93688,0.76729 -6.05896,-0.68792 -8.33438,-2.69875 -1.42875,-1.24354 -2.69875,-2.75167 -3.22792,-4.57729 1.45521,-0.55563 2.83105,-0.635 4.5773,-0.84667 z"
           id="path3658"
           style="stroke-width:0.264583" />
        <g
           id="g3670"
           transform="matrix(0.26458333,0,0,0.26458333,-558.71905,22.149407)">
          <path
             fill="#07a580"
             d="m 1102.4,727.1 c 1.8,-1.8 3.3,-4.6 2.2,-6.9 -0.6,-1.2 -1.8,-1.9 -3,-2.2 -1.2,-0.3 -2.5,-0.8 -3.8,-0.6 -3,0.6 -6,1.4 -8.6,3.3 -3.5,2.6 -6.3,7 -7.3,11.9 -0.1,0.7 0.2,1.4 0.9,1.4 7.1,-0.1 14.5,-1.7 19.6,-6.9 z"
             id="path3660" />
          <path
             fill="#048d68"
             d="m 1099,721.5 c -2.9,0.6 -5.6,1.8 -7.8,3.6 -0.9,0.7 0.4,2 1.2,1.2 1.9,-1.6 4.3,-2.6 6.8,-3.2 -0.1,-0.5 -0.2,-1 -0.2,-1.6 z"
             id="path3662" />
          <path
             fill="#c1306b"
             d="m 1107.8,719.6 c 0,0 0,-0.1 0,-0.1 -0.1,-1.2 -0.4,-2.4 -1.1,-3.2 -0.8,-1 -2.8,-1.2 -4.6,-0.8 -1.2,0 -2.4,0.2 -3.4,1 -1.7,1.4 -1.4,3.7 -1.1,5.6 0.7,4 5.9,6 8.9,2.9 1.3,-1.4 1.6,-3.6 1.3,-5.4 z"
             id="path3664" />
          <path
             fill="#07a580"
             d="m 1128.2,729 c -1.6,-4.6 -5.1,-8.6 -8.9,-10.6 -2.8,-1.5 -5.9,-1.8 -9,-1.9 -2.8,-0.1 -6.3,1.6 -6.3,4.8 0,0.8 0.2,1.6 0.4,2.3 0.6,1.2 1.7,2.3 2.7,3 5.9,4.4 13.4,4.9 20.4,3.9 0.7,-0.1 0.9,-0.8 0.7,-1.5 z"
             id="path3666" />
          <path
             fill="#048d68"
             d="m 1113.3,722.6 c -2.8,-1.1 -6,-1.7 -9.3,-1.6 0,0.1 0,0.2 0,0.3 0,0.5 0.1,1 0.2,1.4 3.1,0 6.1,0.6 8.7,1.6 1,0.4 1.4,-1.3 0.4,-1.7 z"
             id="path3668" />
        </g>
        <g
           id="g3674"
           transform="matrix(0.26458333,0,0,0.26458333,-558.71905,22.149407)">
          <path
             fill="#c1306b"
             d="m 1201.7,631.7 c -0.5,-1.8 -1.7,-3.7 -1,-5.5 1.8,-1.5 4.6,-0.7 6.1,1 1.5,1.7 1.9,4.2 2,6.5 3.4,-3.9 6.7,-7.5 10.1,-11.6 1,-1.2 2.1,-3.2 3.7,-3.6 1.6,-0.4 3.6,0.6 3.5,2.2 0,0.8 -0.6,1.5 -1.1,2.2 -1.9,2.5 -3.9,5 -5.8,7.4 -0.7,1 -1.1,2.9 0.1,2.9 0.4,0 0.8,-0.3 1.1,-0.5 2,-1.7 4,-3.5 5.9,-5.2 1.2,-1.1 2.5,-2.2 4.1,-2.4 1.6,-0.2 3.5,0.8 3.6,2.4 0.1,2 -2.2,3 -3.9,3.9 -2.9,1.5 -7.5,5.9 -6.7,6.9 1.7,1.5 4.5,-0.9 6.5,-2.4 1.5,-1.1 3.4,-2.3 5.2,-2.7 0.7,-0.1 1.4,0.3 2,0.8 1.4,0.9 0.5,3.1 -0.8,4.2 -3,2.5 -9.8,4.4 -10.5,6.4 0.3,0.5 1,0.7 1.6,0.8 1,0.2 2,0.3 2.9,0.4 1.1,0.1 2.1,0.4 3,1 0.7,0.5 1.3,1.6 0.9,2.4 -1,1.9 -4.3,1.1 -5.9,0.9 -1.6,-0.3 -3.3,-0.4 -4.9,-0.3 -0.8,0.5 -1.6,1.1 -2.3,1.7 -3.4,2.5 -7.6,4.2 -11.8,3.7 -4.2,-0.5 -8.2,-3.5 -9.1,-7.6 -0.9,-5.2 3,-10.7 1.5,-15.9 z"
             id="path3672" />
        </g>
        <path
           fill="#c1306b"
           d="m -241.11322,193.07024 c -0.13229,0.0265 -0.26458,0.10583 -0.37042,0.18521 -1.29646,0.84666 -2.56646,1.69333 -3.86291,2.54 1.5875,1.66687 3.3602,3.14854 5.2652,4.445 0.92605,-1.82563 1.79917,-3.70417 2.59292,-5.58271 -1.00542,-0.47625 -2.01083,-0.9525 -3.01625,-1.42875 -0.18521,-0.10584 -0.39687,-0.18521 -0.60854,-0.15875 z"
           id="path3676"
           style="stroke-width:0.264583" />
        <path
           fill="#c1306b"
           d="m -254.89801,172.03586 c -2.11667,1.11125 -12.46188,5.08 -13.59959,5.15938 -1.1377,0.0794 -12.43541,-3.20146 -15.05479,-3.70417 -0.9525,-0.18521 -1.93146,1.5875 -2.19604,2.59292 -0.23812,0.87312 0.29104,2.01083 1.24354,2.19604 2.38125,0.44979 13.07042,3.38667 15.68979,4.10104 0.37042,0.10583 0.7673,0.0794 1.13771,-0.0529 2.48709,-0.9525 12.48834,-4.76249 14.57854,-5.87374 2.06375,-1.05834 0.26459,-5.50334 -1.79916,-4.41855 z"
           id="path3678"
           style="stroke-width:0.264583" />
        <path
           fill="#8e361e"
           d="m -250.63822,184.44482 c 0.23812,-0.18521 0.3175,-0.50271 0.37042,-0.79375 0.9525,-4.89479 -0.29105,-10.50396 -3.99521,-13.83771 -3.70417,-3.30729 -8.78417,-4.89479 -13.75834,-5.02708 -5.23875,-0.13229 -10.71562,1.34938 -14.41979,5.02708 -3.73062,3.67771 -4.84187,10.18646 -2.32833,14.76375 5.02708,-4.02166 9.73667,-8.96937 13.09687,-14.31395 3.14855,3.43958 13.07042,11.64166 19.97605,14.26104 0.37041,0.15875 0.79375,0.15875 1.05833,-0.0794 z"
           id="path3680"
           style="stroke-width:0.264583" />
        <ellipse
           transform="rotate(-0.75168483)"
           fill="#ccd72a"
           cx="-270.75961"
           cy="176.38144"
           rx="1.2964402"
           ry="1.6403937"
           id="ellipse3682"
           style="stroke-width:0.26458" />
        <path
           fill="#c97050"
           d="m -263.94676,195.02815 c -0.50271,1.42875 -1.87854,2.19605 -3.33375,2.3548 -0.71438,0.0794 -1.42875,0 -2.14313,-0.15875 -0.76729,-0.15875 -1.29646,-0.66146 -1.87854,-1.16417 -0.37042,-0.3175 -0.89958,0.21167 -0.52917,0.52917 0.68792,0.58208 1.32292,1.11125 2.2225,1.34937 0.84667,0.23813 1.82563,0.29104 2.6723,0.15875 1.66687,-0.26458 3.12208,-1.24354 3.70416,-2.8575 0.15875,-0.44979 -0.58208,-0.66146 -0.71437,-0.21167 z"
           id="path3684"
           style="stroke-width:0.264583" />
        <path
           fill="#c1306b"
           d="m -268.47114,231.24961 -1.16416,-1.21708 c -0.50271,-0.50271 -0.47625,-1.32292 0.0264,-1.82563 l 1.21709,-1.16416 c 0.50271,-0.50271 1.32291,-0.47625 1.82562,0.0265 l 1.16417,1.21708 c 0.50271,0.50271 0.47625,1.32292 -0.0265,1.82562 l -1.21708,1.16417 c -0.52917,0.50271 -1.34938,0.50271 -1.82563,-0.0265 z"
           id="path3686"
           style="stroke-width:0.264583" />
      </g>
    </g>
  </g>
</svg>
