<?xml version="1.0" encoding="UTF-8" standalone="no"?>
<svg
   xmlns:dc="http://purl.org/dc/elements/1.1/"
   xmlns:cc="http://creativecommons.org/ns#"
   xmlns:rdf="http://www.w3.org/1999/02/22-rdf-syntax-ns#"
   xmlns:svg="http://www.w3.org/2000/svg"
   xmlns="http://www.w3.org/2000/svg"
   xmlns:sodipodi="http://sodipodi.sourceforge.net/DTD/sodipodi-0.dtd"
   xmlns:inkscape="http://www.inkscape.org/namespaces/inkscape"
   width="25"
   height="30"
   viewBox="0 0 6.6145835 7.9375003"
   version="1.1"
   id="svg2421"
   inkscape:version="1.0.2 (e86c8708, 2021-01-15)"
   sodipodi:docname="boy-head-mini.svg">
  <defs
     id="defs2415" />
  <sodipodi:namedview
     id="base"
     pagecolor="#ffffff"
     bordercolor="#666666"
     borderopacity="1.0"
     inkscape:pageopacity="0.0"
     inkscape:pageshadow="2"
     inkscape:zoom="14.349679"
     inkscape:cx="12.5"
     inkscape:cy="19.4081"
     inkscape:document-units="px"
     inkscape:current-layer="layer1"
     inkscape:document-rotation="0"
     showgrid="false"
     inkscape:window-width="1440"
     inkscape:window-height="900"
     inkscape:window-x="0"
     inkscape:window-y="0"
     inkscape:window-maximized="0"
     units="px" />
  <metadata
     id="metadata2418">
    <rdf:RDF>
      <cc:Work
         rdf:about="">
        <dc:format>image/svg+xml</dc:format>
        <dc:type
           rdf:resource="http://purl.org/dc/dcmitype/StillImage" />
        <dc:title></dc:title>
      </cc:Work>
    </rdf:RDF>
  </metadata>
  <g
     inkscape:label="Layer 1"
     inkscape:groupmode="layer"
     id="layer1"
     transform="translate(-43.247079,-28.443962)">
    <g
       id="g5892"
       transform="matrix(0.12829899,0,0,0.12829899,38.546683,24.813068)">
      <path
         fill="#065493"
         d="m 80.156452,87.075632 c -0.687917,-0.79375 -3.730625,-3.757083 -4.497916,-4.445 -0.582084,-0.529166 -1.561042,-1.269999 -2.328334,-1.481666 -0.02646,0 -0.07937,-0.02646 -0.105833,-0.02646 -0.15875,-0.02646 -4.841875,-1.217084 -10.080625,-1.322917 -3.148542,-0.07938 -9.525,1.455208 -9.657292,1.481667 0,0.02646 -8.016874,5.794374 -7.540624,6.508749 3.237208,1.05738 5.585462,2.045791 7.661784,2.192053 6.389941,0.450125 8.618398,0.442972 19.590299,-0.04893 -0.3175,-5.74146 -10.57377,-0.421739 0,0 3.894098,-0.07034 7.488578,-0.663484 8.059734,-1.151473 0.264513,-0.914459 -0.5812,-1.093551 -1.101193,-1.706027 z"
         id="path3468"
         style="stroke-width:0.264583"
         sodipodi:nodetypes="sccccccsccccs" />
      <path
         fill="#f8ca10"
         d="m 59.069161,80.725633 c 0.05292,-0.105834 0.07937,-0.238125 0.07937,-0.343959 -0.02646,-0.185208 -0.185209,-0.291041 -0.343959,-0.343958 -0.15875,-0.05292 -0.343958,-0.02646 -0.529166,-0.02646 -1.561042,0.132291 -3.148542,0.3175 -4.577292,0.9525 -0.105833,0.05292 -0.238125,0.132291 -0.291042,0.238125 -0.07937,0.185208 0.105834,0.370416 0.264584,0.502708 0.767291,0.635 1.613958,1.137708 2.513541,1.534583 0.132292,0.05292 0.264584,0.105833 0.396875,0.105833 0.185209,0 0.343959,-0.132291 0.47625,-0.238125 0.79375,-0.661458 1.5875,-1.402291 2.010834,-2.381249 z"
         id="path3490"
         style="stroke-width:0.264583" />
      <circle
         fill="#f8951d"
         cx="56.317493"
         cy="81.810425"
         r="0.76729167"
         id="circle3492"
         style="stroke-width:0.264583" />
      <path
         fill="#f8ca10"
         d="m 72.668744,81.678133 c 0.07937,-0.07937 0.15875,-0.185209 0.185208,-0.3175 0.02646,-0.185209 -0.07938,-0.343959 -0.211666,-0.449792 -0.132292,-0.105833 -0.3175,-0.15875 -0.47625,-0.185208 -1.508125,-0.396875 -3.069167,-0.79375 -4.630209,-0.661459 -0.132291,0 -0.264583,0.02646 -0.343958,0.132292 -0.132292,0.15875 -0.02646,0.396875 0.05292,0.555625 0.502708,0.846667 1.11125,1.640416 1.852083,2.301875 0.105833,0.105833 0.211667,0.185208 0.343958,0.238125 0.185209,0.05292 0.370417,0 0.529167,-0.05292 0.978958,-0.343958 1.957917,-0.79375 2.69875,-1.561041 z"
         id="path3494"
         style="stroke-width:0.264583" />
      <circle
         fill="#f8951d"
         cx="69.705414"
         cy="81.731049"
         r="0.76729167"
         id="circle3496"
         style="stroke-width:0.264583" />
      <path
         fill="#171617"
         d="m 60.762494,28.443967 c 3.730625,3.571874 8.016875,5.265208 11.138958,9.472083 0.238125,-1.137709 0.343959,-2.301875 0.3175,-3.466042 4.021667,1.74625 6.852708,7.990417 7.14375,12.620625 0.873125,-0.47625 1.481667,-1.42875 1.5875,-2.460625 1.164167,3.862917 1.084792,8.069792 0.714375,12.117916 -0.132292,1.561042 -0.343958,3.201459 -1.164167,4.524375 -0.79375,1.296459 -2.090208,2.143125 -3.439583,2.619375 -1.375833,0.47625 -2.831041,0.555625 -4.259791,0.555625 -6.138334,0.02646 -12.170834,-1.42875 -18.176875,-2.566458 -2.06375,-0.396875 -4.153958,-0.740833 -6.217708,-0.502708 -0.635,0.07937 -1.27,0.211666 -1.905,0.07937 -1.375834,-0.291042 -2.248959,-1.772709 -2.672292,-3.201459 -1.190625,-3.995208 -0.291042,-8.334374 0.79375,-12.382499 0.529167,-1.957917 1.084792,-3.889375 1.693333,-5.820834 0.635,0.608542 1.11125,1.349375 1.42875,2.196042 0.555625,-1.878542 2.169584,-5.185833 3.730625,-6.217708 1.5875,-1.031875 3.307292,-1.799167 4.736042,-3.042709 0.396875,0.608542 0.661458,1.322917 0.740833,2.06375 0.978958,-1.561041 3.413125,-4.736041 3.81,-6.588124 z"
         id="path3500"
         style="stroke-width:0.264583" />
      <g
         id="g3508"
         transform="matrix(0.26458333,0,0,0.26458333,-13.92938,15.8498)">
        <path
           fill="#fbc7b1"
           d="m 349,203.3 c 2.2,-5.1 3.9,-10.8 5.2,-16.4 0.2,-1.1 1.8,-8 1,-8.4 -0.6,-0.3 -0.9,-1.3 -1,-2.6 2,-3.6 1.2,-8.5 0.7,-12.3 -0.9,-5.9 -3.2,-10.9 -6.6,-15.7 -1,-2.4 -2.1,-4.7 -3.3,-6.9 -4.9,-9.1 -12.4,-16.8 -21.2,-22.1 -9.5,-5.6 -21.4,-8.4 -32.4,-8.1 -5.7,0.2 -13.3,-0.8 -17.9,3 -0.2,-0.3 -0.4,-0.7 -0.5,-1 0,-0.1 0,-0.1 -0.1,-0.2 -0.2,-0.6 -12.4,5.3 -13.5,5.9 -4.4,2.5 -8.4,5.6 -12,9.1 -3.6,3.4 -6.7,7.3 -9.4,11.4 -1.4,2.1 -4.7,2.7 -5.9,4.9 -1.6,3 -2.2,6.8 -4,9.6 -0.7,1.1 -1,3.2 0.2,3.5 v 0.1 c -0.1,2.6 -0.2,5.1 -0.1,7.5 -0.2,1.1 -0.3,2.3 -0.4,3.4 -0.1,0 -0.1,0 -0.2,0 -4.2,0.4 -7.3,4.1 -7,8.4 0.3,4 3.6,7 7.4,7.2 3.9,29 26.1,51.3 53.5,55.8 l 0.2,1.6 c 0.2,2.3 4.8,4.2 10.8,4 0,0 11.4,-0.6 11.1,-3.6 0,0 -0.1,-2.3 -0.1,-2.3 0.1,0.7 14.9,-4.9 16.2,-5.5 5.1,-2.6 9.9,-5.8 14.1,-9.7 4.2,-3.8 7.9,-8.2 11,-13 1.7,-2.2 3,-4.9 4.2,-7.6 z"
           id="path3502" />
        <circle
           fill="#fbc7b1"
           cx="228.10001"
           cy="175.3"
           r="12"
           id="circle3504" />
        <circle
           fill="#fbc7b1"
           cx="354.70001"
           cy="177.60001"
           r="12"
           id="circle3506" />
      </g>
      <g
         id="g3512"
         transform="matrix(0.26458333,0,0,0.26458333,-13.92938,15.8498)">
        <path
           fill="#c97050"
           d="m 298.5,194.2 c 0,1.2 1.8,1.1 1.8,-0.1 0.1,-4 -2.8,-7.1 -6.9,-7.1 -4.2,0 -7.1,3.5 -7,7.5 0,1.2 1.9,1.1 1.8,-0.1 -0.1,-3 1.9,-5.4 5,-5.6 3.3,-0.2 5.3,2.3 5.3,5.4 z"
           id="path3510" />
      </g>
      <ellipse
         transform="rotate(1.7547642)"
         fill="#f6a2b3"
         cx="54.222404"
         cy="65.600838"
         rx="2.6457512"
         ry="1.8520257"
         id="ellipse3514"
         style="stroke-width:0.264575" />
      <ellipse
         transform="rotate(1.7547642)"
         fill="#f6a2b3"
         cx="75.336533"
         cy="65.324799"
         rx="2.6457512"
         ry="1.8520257"
         id="ellipse3516"
         style="stroke-width:0.264575" />
      <path
         fill="#ffffff"
         d="m 64.598952,74.058133 c -0.767291,0.105833 -1.534583,0 -2.169583,-0.396875 -0.582083,-0.343959 -1.11125,-0.978959 -1.27,-1.640417 -0.02646,-0.07937 -0.02646,-0.423333 -0.02646,-0.714375 0,-0.238125 0.211666,-0.423333 0.449791,-0.370417 1.772709,0.502709 3.81,0.07937 5.23875,-1.11125 0.185209,-0.15875 0.502709,-0.05292 0.582084,0.185209 0.264583,0.820208 0.185208,1.74625 -0.264584,2.487083 -0.502708,0.873125 -1.508125,1.42875 -2.54,1.561042 z"
         id="path3518"
         style="stroke-width:0.264583" />
      <path
         fill="#171617"
         d="m 61.873744,47.705633 c 2.434167,1.852083 5.132917,3.81 8.202083,3.783542 -0.396875,-0.978959 -0.714375,-2.010834 -0.899583,-3.042709 4.259792,1.799167 7.77875,5.344584 9.551458,9.630833 0.15875,0.343959 0.343958,0.767292 0.714375,0.846667 0.343958,0.07937 0.687917,-0.185208 0.820208,-0.502708 0.132292,-0.3175 0.105834,-0.687917 0.07937,-1.031875 C 79.891869,53.15605 77.960411,49.081466 74.970619,46.0123 71.980827,42.943133 67.959161,40.958758 63.725827,40.429591 c -2.487083,-0.3175 -4.974166,-0.132291 -7.46125,0.185209 -1.164166,0.15875 -2.328333,0.343958 -3.386666,0.846666 -1.137708,0.529167 -2.116667,1.402292 -2.989792,2.301875 -1.613958,1.640417 -3.042708,3.545417 -3.783541,5.715 -0.740834,2.169584 -0.767292,4.683125 0.343958,6.693958 3.624792,-2.407708 7.090833,-5.027083 10.398125,-7.831666 0.15875,-0.132292 0.343958,-0.291042 0.555625,-0.3175 0.264583,-0.02646 0.529166,0.132292 0.740833,0.291042 1.164167,0.820208 2.354792,1.613958 3.518958,2.434166 0.132292,-1.005416 0.211667,-2.037291 0.211667,-3.042708 z"
         id="path3520"
         style="stroke-width:0.264583" />
      <g
         id="g3532"
         transform="matrix(0.26458333,0,0,0.26458333,-13.92938,15.8498)">
        <path
           fill="#065493"
           d="m 242.7,193.4 c 10.4,2.5 22.4,4.5 31.3,-0.7 6.5,-3.8 11.1,-11.3 18.9,-11.2 5.4,0.1 9.6,3.9 13.8,6.9 5.5,4.1 12.1,7.3 19.2,8.2 7.1,0.9 14.8,-0.5 20.2,-4.6 8,-6.2 9.6,-16.5 10.6,-25.9 0.5,-4.6 0.9,-9.5 -2,-13.4 -2.6,-3.5 -7.4,-5.3 -12,-6.3 -7.3,-1.5 -15,-1.4 -22.2,0.3 -5.1,1.2 -9.9,3.2 -15,4.2 -11.4,2.4 -23.5,0.2 -34.6,-3.2 -8.2,-2.5 -16.6,-5.8 -25.2,-5.4 -6.5,0.3 -17.2,2.9 -18.9,10.3 -2,8.3 -1,17.1 1.5,25.2 1.1,3.5 2.4,8.6 4.9,11.5 2.2,2.8 6.3,3.4 9.5,4.1 z"
           id="path3522" />
        <ellipse
           transform="matrix(0.999,0.04374303,-0.04374303,0.999,7.6927,-11.0642)"
           fill="#fbc7b1"
           cx="256.70001"
           cy="170.2"
           rx="16.299999"
           ry="11.3"
           id="ellipse3524" />
        <ellipse
           transform="matrix(0.999,0.04374303,-0.04374303,0.999,7.7704,-14.1298)"
           fill="#fbc7b1"
           cx="326.70001"
           cy="170.5"
           rx="16.299999"
           ry="11.3"
           id="ellipse3526" />
        <ellipse
           transform="matrix(0.9994,-0.03479039,0.03479039,0.9994,-5.7928,9.0318)"
           fill="#472710"
           cx="256.60001"
           cy="171"
           rx="6.5999999"
           ry="7.8000002"
           id="ellipse3528" />
        <ellipse
           transform="matrix(0.9994,-0.03479039,0.03479039,0.9994,-5.7336,11.4709)"
           fill="#472710"
           cx="326.70001"
           cy="170.5"
           rx="6.5999999"
           ry="7.8000002"
           id="ellipse3530" />
      </g>
    </g>
  </g>
</svg>
