<?xml version="1.0" encoding="UTF-8" standalone="no"?>
<svg
   xmlns:dc="http://purl.org/dc/elements/1.1/"
   xmlns:cc="http://creativecommons.org/ns#"
   xmlns:rdf="http://www.w3.org/1999/02/22-rdf-syntax-ns#"
   xmlns:svg="http://www.w3.org/2000/svg"
   xmlns="http://www.w3.org/2000/svg"
   xmlns:sodipodi="http://sodipodi.sourceforge.net/DTD/sodipodi-0.dtd"
   xmlns:inkscape="http://www.inkscape.org/namespaces/inkscape"
   width="152.89275"
   height="43.094334"
   viewBox="0 0 40.452872 11.402043"
   version="1.1"
   id="svg2421"
   inkscape:version="1.0.2 (e86c8708, 2021-01-15)"
   sodipodi:docname="logo.svg">
  <defs
     id="defs2415">
    <rect
       x="108.64725"
       y="114.52209"
       width="119.0625"
       height="28.111979"
       id="rect5120" />
  </defs>
  <sodipodi:namedview
     id="base"
     pagecolor="#ffffff"
     bordercolor="#666666"
     borderopacity="1.0"
     inkscape:pageopacity="0.0"
     inkscape:pageshadow="2"
     inkscape:zoom="1.3622282"
     inkscape:cx="290.91762"
     inkscape:cy="116.25132"
     inkscape:document-units="px"
     inkscape:current-layer="text5126"
     inkscape:document-rotation="0"
     showgrid="false"
     inkscape:window-width="1440"
     inkscape:window-height="771"
     inkscape:window-x="0"
     inkscape:window-y="25"
     inkscape:window-maximized="0"
     units="px"
     showborder="true"
     fit-margin-top="0"
     fit-margin-left="0"
     fit-margin-right="0"
     fit-margin-bottom="0"
     inkscape:pagecheckerboard="false" />
  <metadata
     id="metadata2418">
    <rdf:RDF>
      <cc:Work
         rdf:about="">
        <dc:format>image/svg+xml</dc:format>
        <dc:type
           rdf:resource="http://purl.org/dc/dcmitype/StillImage" />
        <dc:title></dc:title>
      </cc:Work>
    </rdf:RDF>
  </metadata>
  <g
     inkscape:label="Layer 1"
     inkscape:groupmode="layer"
     id="layer1"
     transform="translate(-20.177197,-95.505167)">
    <text
       xml:space="preserve"
       id="text5118"
       style="font-style:normal;font-weight:normal;font-size:10.58329999999999949px;line-height:1.25;font-family:sans-serif;white-space:pre;shape-inside:url(#rect5120);fill:#000000;fill-opacity:1;stroke:none;" />
    <g
       aria-label="Чудесино "
       id="text5126"
       style="font-style:normal;font-weight:normal;font-size:10.5833px;line-height:1.25;font-family:sans-serif;fill:#000000;fill-opacity:1;stroke:none;stroke-width:0.264583"
       inkscape:transform-center-x="-7.2665653"
       inkscape:transform-center-y="-0.19422836"
       transform="matrix(0.98453904,0,0,1,0.55494843,0)">
      <g
         id="g5249">
        <g
           id="g5601"
           transform="matrix(0.1863292,0,0,0.18344837,15.092362,71.766048)">
          <g
             id="g5579">
            <path
               fill="#a41e22"
               d="m 88.52736,158.1129 c 0.0265,0.26458 0.15875,0.47625 0.29105,0.68791 1.32291,2.14313 2.38125,4.44501 3.175,6.85271 0.66145,-0.84666 1.34937,-1.71979 2.01083,-2.56646 0.0794,-0.10583 0.18521,-0.23812 0.21167,-0.37041 0.0264,-0.15875 -0.0265,-0.3175 -0.0794,-0.47625 -0.84667,-2.16959 -2.2225,-4.18042 -3.91583,-5.76792 2.64583,-0.21167 5.26521,-0.60854 7.85812,-1.19062 -0.3175,-1.66688 -0.635,-3.3073 -0.9525,-4.97417 -2.03729,1.45521 -4.23333,2.69875 -6.53521,3.73062 -0.34395,0.15875 -0.71437,0.3175 -0.97895,0.60855 -0.23813,0.29104 -0.34396,0.635 -0.4498,1.00541 -0.15875,0.58209 -0.34395,1.16417 -0.5027,1.74625 -0.10584,0.23813 -0.15875,0.47625 -0.1323,0.71438 z"
               id="path3540"
               style="stroke-width:0.264583" />
            <path
               fill-rule="evenodd"
               clip-rule="evenodd"
               fill="#6d1716"
               d="m 58.89403,174.25248 c -1.93146,0.60854 -3.20146,-0.74083 -5.29166,2.27542 -2.48709,3.57187 -4.067908,3.94306 -4.094368,9.89618 41.550426,-0.19682 5.147292,-0.10169 40.273951,-0.44953 -4.47146,-1.61395 0.597497,-0.18629 -3.053753,-3.20254 -2.54,-2.0902 -5.05354,-4.33916 -8.04334,-5.74145 -3.75708,-1.74625 -8.01687,-2.01084 -12.17083,-2.24896 -2.27541,-0.13229 -5.42396,-1.24354 -7.62,-0.52917 z"
               id="path3542"
               style="stroke-width:0.264583"
               sodipodi:nodetypes="ccccccccc" />
            <path
               fill-rule="evenodd"
               clip-rule="evenodd"
               fill="#cd2027"
               d="m 70.08591,174.88748 c -0.0265,-1.98437 0.55562,-4.41854 0.52916,-4.41854 l -7.67291,-2.35479 c -0.0529,0.26458 -0.3175,1.11125 -0.60854,2.06375 -0.55563,1.00541 -0.92605,2.16958 -1.05834,3.28083 -0.0529,0.15875 -0.0794,0.26459 -0.0794,0.26459 -1.64042,0.79374 -4.20688,0.47624 -4.20688,0.47624 0,0 2.11667,4.36563 4.55084,5.8473 2.43416,1.48166 10.68916,-0.60855 10.68916,-0.60855 -1.24354,0.1323 -2.11666,-2.61937 -2.14312,-4.55083 z"
               id="path3544"
               style="stroke-width:0.264583" />
            <path
               fill-rule="evenodd"
               clip-rule="evenodd"
               fill="#cd2027"
               d="m 43.415908,167.61144 -4.1275,5.18583 15.160625,6.93209 c -1.137708,3.96875 0,0 -1.027508,5.65129 -0.250069,3.7511 23.120216,2.86829 23.173133,0.5135 0.07937,-4.97417 -1.455209,-1.08479 0,0 l 7.196666,5.02708 -7.196666,-5.02708 13.187295,0.0804 c 0,0 -6.519795,-4.02269 -13.213754,-8.17665 -3.995208,-2.46063 -26.722916,-7.62 -33.152291,-10.18646 z"
               id="path3546"
               style="stroke-width:0.264583"
               sodipodi:nodetypes="ccccccccccc" />
            <path
               fill-rule="evenodd"
               clip-rule="evenodd"
               fill="#f8ca10"
               d="m 45.215075,167.69082 -2.090209,-0.82021 C 40.84945,166.10332 27.382158,161.49957 26.0857,163.1929 c -0.740833,0.97896 2.169583,2.80458 2.169583,2.80458 0,0 -1.534583,1.905 -1.190625,2.59292 1.005417,2.06375 5.185834,0.13229 7.381875,1.74625 l 5.635625,3.67771 z"
               id="path3548"
               style="stroke-width:0.264583" />
            <path
               fill="#fbc7b1"
               d="m 54.10507,149.48748 c -3.6777,11.48292 2.06375,20.02896 11.40355,22.64833 9.36625,2.59292 18.65312,-1.42875 21.58999,-12.01208 2.56646,-9.23396 1.69334,-20.61104 -11.48291,-24.28875 -13.54667,-3.78354 -18.52083,4.33917 -21.51063,13.6525 z"
               id="path3556"
               style="stroke-width:0.264583" />
            <circle
               fill="#fbc7b1"
               cx="86.595917"
               cy="161.94936"
               r="3.4924998"
               id="circle3558"
               style="stroke-width:0.264583" />
            <path
               fill="#c97050"
               d="m 66.83153,157.82186 c 0.3175,0.0529 0.39688,-0.47625 0.0529,-0.52917 -1.16417,-0.21167 -2.16958,0.44979 -2.35479,1.64042 -0.21167,1.21708 0.66146,2.19604 1.79916,2.35479 0.34396,0.0529 0.39688,-0.47625 0.0529,-0.52917 -0.87312,-0.10583 -1.45521,-0.79375 -1.37583,-1.69333 0.10583,-0.9525 0.9525,-1.40229 1.82562,-1.24354 z"
               id="path3560"
               style="stroke-width:0.264583" />
            <ellipse
               transform="rotate(-165.25644)"
               fill="#f6a2b3"
               cx="-118.12385"
               cy="-136.3873"
               rx="2.8046572"
               ry="1.9579682"
               id="ellipse3564"
               style="stroke-width:0.26459" />
            <ellipse
               transform="rotate(-159.4339)"
               fill="#f6a2b3"
               cx="-108.44931"
               cy="-125.98345"
               rx="2.8046806"
               ry="1.9579846"
               id="ellipse3566"
               style="stroke-width:0.264592" />
            <path
               fill="#be892c"
               d="m 86.75466,158.80081 c 1.95791,-5.74145 2.43416,-13.36145 -0.87313,-18.44145 -3.30729,-5.08 -9.36625,-8.33438 -15.42521,-8.01688 -8.1227,0.44979 -15.50458,7.11729 -15.71625,15.26646 2.80459,-4.60375 5.34459,-7.14375 8.89,-9.76312 1.42875,-0.10584 2.91042,-0.21167 4.28625,0.23812 1.37584,0.44979 2.64584,1.50812 2.8575,2.93687 0.21167,1.42875 -1.00541,3.01625 -2.43416,2.83105 0.76729,1.16416 2.72521,0.76729 3.51896,-0.39688 0.79375,-1.16417 0.74083,-2.64583 0.66145,-4.04812 3.175,0.79375 6.19125,2.09021 8.62542,4.25979 3.14854,2.77812 5.23875,10.08062 5.60917,15.13416 z"
               id="path3568"
               style="stroke-width:0.264583" />
            <path
               fill="#be892c"
               d="m 92.62841,150.4929 c -0.3175,-0.66146 -0.7673,-1.24354 -1.27,-1.77271 0.52916,3.33375 0,6.79979 -1.53459,9.81604 -0.47625,0.92604 -3.59833,5.29167 -3.65125,4.25979 -0.0265,-0.52916 0.50271,-4.18041 0.58209,-5.00062 0.3175,-3.57188 0.58208,-7.24959 -0.50271,-10.68917 -1.32292,-4.15396 -4.60375,-7.51416 -8.54604,-9.33979 -3.94229,-1.82562 -8.49313,-2.14312 -12.75292,-1.34937 -0.9525,0.1852 -1.87854,0.42333 -2.69875,0.89958 -1.32292,0.79375 -2.16958,2.16958 -2.96333,3.4925 -1.40229,2.32833 -3.14854,4.445 -4.52438,6.77333 -1.00541,-4.49791 2.43417,-11.77396 6.16479,-14.49916 3.73063,-2.72521 8.49313,-3.6248 13.12334,-3.67771 4.73604,-0.0529 9.92187,2.88396 12.35604,7.19666 0.3175,-0.9525 0.39687,-1.95791 0.29104,-2.96333 1.13771,0.66146 1.79917,2.06375 1.5875,3.36021 1.42875,0.10583 2.80458,0.52917 4.04812,1.27 -0.87312,0.0529 -1.74625,0.39687 -2.46062,0.89958 2.61937,3.09563 3.67771,7.43479 2.75167,11.32417 z"
               id="path3570"
               style="stroke-width:0.264583" />
            <path
               fill-rule="evenodd"
               clip-rule="evenodd"
               fill="#6d1716"
               d="m 57.67695,171.87123 c 0.18521,1.32292 0.84667,5.00063 1.98437,5.68854 2.75167,1.71979 6.0325,2.30188 9.26042,2.43417 1.21708,0.0529 2.93688,-2.43417 3.99521,-3.01625 0.44979,-0.23812 0.87312,-0.87313 0.50271,-1.21708 -0.15875,-0.1323 -0.50271,-0.39688 -0.71438,-0.42334 -3.99521,-0.39687 -7.48771,-0.89958 -11.21833,-2.4077 -1.11125,-0.47625 -2.59292,-1.11126 -3.81,-1.05834 z"
               id="path3580"
               style="stroke-width:0.264583" />
            <path
               fill="#cd2027"
               d="m 57.43882,144.67206 c -0.23812,-0.0794 -0.5027,-0.1852 -0.74083,-0.13229 -0.34396,0.0794 -0.47625,0.47625 -0.66146,0.76729 -1.08479,1.85209 -2.01083,3.33375 -2.64583,6.53521 4.47146,2.56646 9.49854,3.99521 14.52562,5.21229 7.24959,1.77271 14.57854,3.20146 21.96042,4.28625 0.97896,-2.46062 1.45521,-5.10645 1.37583,-7.75229 -0.0529,-1.11125 -9.63083,-2.67229 -10.68916,-2.96333 -5.76792,-1.56104 -21.14021,-5.21229 -23.12459,-5.95313 z"
               id="path3586"
               style="stroke-width:0.264583" />
            <path
               fill="#fbc7b1"
               d="m 80.27236,154.14415 c -0.29104,-1.19063 -1.48166,-2.2225 -2.8575,-2.48708 -0.79375,-0.15875 -1.61395,-0.0529 -2.27541,0.26458 -1.29646,0.60854 -1.87854,2.14312 -1.27,3.38667 0.50271,1.03187 1.71979,1.79916 2.98979,1.98437 0.3175,0.0529 0.635,0.0794 0.92604,0.0529 0.26458,-0.0265 0.52917,-0.0794 0.76729,-0.18521 1.29646,-0.47625 2.01084,-1.79916 1.71979,-3.01625 z"
               id="path3588"
               style="stroke-width:0.264583" />
            <ellipse
               transform="rotate(-164.43632)"
               fill="#472710"
               cx="-114.96368"
               cy="-128.24011"
               rx="1.7461904"
               ry="2.0636797"
               id="ellipse3590"
               style="stroke-width:0.264574" />
            <path
               fill="#fbc7b1"
               d="m 66.22299,150.96915 c -0.37042,-1.19063 -1.61396,-2.14313 -3.01625,-2.30188 -0.79375,-0.10583 -1.61396,0.0529 -2.27542,0.42334 -1.27,0.71437 -1.74625,2.30187 -1.05833,3.51895 0.55563,1.00542 1.82563,1.69334 3.09563,1.82563 0.3175,0.0265 0.635,0.0265 0.92604,-0.0265 0.26458,-0.0529 0.52916,-0.13229 0.74083,-0.23812 1.32292,-0.58209 1.95792,-1.98438 1.5875,-3.20146 z"
               id="path3592"
               style="stroke-width:0.264583" />
            <ellipse
               transform="rotate(-160.20781)"
               fill="#472710"
               cx="-110.12682"
               cy="-121.25391"
               rx="1.7462"
               ry="2.0636909"
               id="ellipse3594"
               style="stroke-width:0.264576" />
            <path
               fill="#ffffff"
               d="m 62.17487,161.94936 c -0.3175,-0.0529 -0.58209,0.26458 -0.58209,0.60854 0.0529,2.64583 2.32834,4.94771 5.3975,5.37104 3.06917,0.42333 5.84729,-1.24354 6.58813,-3.75708 0.10583,-0.34396 -0.0794,-0.71438 -0.39688,-0.74084 z"
               id="path3596"
               style="stroke-width:0.264583" />
          </g>
        </g>
        <path
           d="m 37.629848,102.45788 q -0.263549,0 -0.423745,-0.1757 -0.155029,-0.18086 -0.155029,-0.47542 0,-0.21704 0.10852,-0.73897 0.10852,-0.52193 0.30489,-1.374587 0.08785,-0.387572 0.124023,-0.645953 0.04134,-0.258382 0.04134,-0.39274 0,-0.532266 -0.310057,-0.532266 -0.361734,0 -0.599445,0.687295 -0.139526,0.397907 -0.248046,0.831988 -0.103353,0.434083 -0.175699,0.914673 l -0.403075,-0.27906 q 0.170531,-1.033521 0.552936,-1.663971 0.382404,-0.630451 0.837155,-0.630451 0.315226,0 0.490925,0.310058 0.175699,0.310058 0.175699,0.873329 0,0.568439 -0.201537,1.488275 -0.201538,0.92501 -0.201538,1.09554 0,0.17053 0.08785,0.27905 0.09302,0.10335 0.227376,0.10335 0.144693,0 0.330728,-0.12919 0.191202,-0.13436 0.397907,-0.3514 0.211873,-0.2222 0.423745,-0.50642 0.217041,-0.28939 0.41341,-0.59945 0.19637,-0.31522 0.361734,-0.630449 0.165364,-0.315225 0.268717,-0.594277 0.04651,-0.124023 0.08785,-0.263549 0.04651,-0.144694 0.08268,-0.289387 0.03617,-0.144694 0.06201,-0.279052 0.02584,-0.134358 0.04134,-0.242879 l 0.449584,-0.186034 -1.018023,4.501007 q -0.263549,1.15238 -0.418578,2.30476 h -0.496092 l 0.02067,-0.12403 q 0.04651,-0.32556 0.124023,-0.73897 0.07751,-0.41857 0.191202,-0.96117 0.118855,-0.54261 0.279052,-1.22473 0.165364,-0.68213 0.382404,-1.53996 -0.372069,0.56844 -0.687294,0.98185 -0.315225,0.40825 -0.58911,0.67696 -0.268716,0.26355 -0.501259,0.39274 -0.232544,0.12919 -0.439249,0.12919 z"
           style="font-style:normal;font-variant:normal;font-weight:normal;font-stretch:normal;font-family:'Savoye LET';-inkscape-font-specification:'Savoye LET'"
           id="path5182" />
        <path
           d="m 40.373858,106.7005 0.253214,-0.34106 q 0.299722,0.32039 0.676959,0.32039 0.397907,0 0.640786,-0.31522 0.242878,-0.31523 0.397907,-1.03353 l 0.237711,-1.0697 q -0.568439,0.66663 -1.028358,0.66663 -0.268717,0 -0.423745,-0.16537 -0.149862,-0.16536 -0.149862,-0.44441 0,-0.18604 0.04651,-0.40824 l 0.351399,-1.85518 0.50126,-0.21187 -0.50126,2.08255 q -0.06201,0.25321 -0.06201,0.37724 0,0.1757 0.103353,0.28938 0.10852,0.10852 0.284219,0.10852 0.191202,0 0.418578,-0.16536 0.232543,-0.17053 0.516763,-0.50643 l 0.444416,-1.97403 0.485756,-0.21187 -0.754473,3.03856 q -0.134358,0.54777 -0.258381,0.85783 -0.118856,0.31005 -0.279052,0.51676 -0.506428,0.65112 -1.235063,0.65112 -0.423745,0 -0.666624,-0.20671 z"
           style="font-style:normal;font-variant:normal;font-weight:normal;font-stretch:normal;font-family:'Savoye LET';-inkscape-font-specification:'Savoye LET'"
           id="path5184" />
        <path
           d="m 44.70433,104.94868 q -0.310058,0 -0.496092,-0.22221 -0.180867,-0.22737 -0.180867,-0.58394 0,-0.41858 0.12919,-0.81649 0.129191,-0.3979 0.356567,-0.70796 0.227375,-0.31006 0.532265,-0.49609 0.30489,-0.1912 0.656289,-0.1912 0.392739,0 0.60978,0.21704 0.0155,-0.0879 0.02584,-0.21704 0.01033,-0.13436 0.0155,-0.27389 0.01033,-0.13952 0.01033,-0.26872 0.0052,-0.12919 0.0052,-0.21187 0,-0.11885 -0.0155,-0.29455 -0.01034,-0.1757 -0.05168,-0.3669 -0.04134,-0.19637 -0.118855,-0.38758 -0.07235,-0.191199 -0.19637,-0.34106 -0.118855,-0.155029 -0.299722,-0.248046 -0.1757,-0.09819 -0.423746,-0.09819 -0.05684,0 -0.155028,0.0155 -0.09302,0.01033 -0.206705,0.04651 -0.113688,0.03617 -0.242879,0.103352 -0.124023,0.06201 -0.248046,0.160197 l -0.06201,-0.09819 q 0.118856,-0.113688 0.268717,-0.19637 0.149861,-0.08268 0.30489,-0.134358 0.155029,-0.05684 0.294555,-0.07751 0.144693,-0.02584 0.242878,-0.02584 0.408243,0 0.661456,0.160197 0.258382,0.155028 0.397908,0.418577 0.144693,0.258381 0.191202,0.594281 0.05168,0.33072 0.05168,0.68212 0,0.47026 -0.08268,0.94051 -0.08268,0.46509 -0.227375,0.894 -0.144694,0.42891 -0.341064,0.80098 -0.19637,0.37207 -0.428913,0.64596 -0.227375,0.26871 -0.480589,0.42374 -0.248046,0.15503 -0.496092,0.15503 z m 1.514114,-2.51147 q -0.05684,-0.17053 -0.206705,-0.26355 -0.149861,-0.0982 -0.330728,-0.0982 -0.191202,0 -0.351398,0.093 -0.160197,0.093 -0.294555,0.25321 -0.134358,0.15503 -0.237711,0.3669 -0.103353,0.20671 -0.175699,0.43408 -0.07235,0.22738 -0.10852,0.46509 -0.03617,0.23254 -0.03617,0.44441 0,0.26872 0.10852,0.43408 0.10852,0.1602 0.341064,0.1602 0.165364,0 0.32556,-0.11885 0.165364,-0.12403 0.30489,-0.3204 0.144694,-0.20153 0.263549,-0.44958 0.124023,-0.24805 0.211873,-0.50126 0.08785,-0.25838 0.134358,-0.49092 0.05168,-0.23772 0.05168,-0.40825 z"
           style="font-style:normal;font-variant:normal;font-weight:normal;font-stretch:normal;font-family:'Savoye LET';-inkscape-font-specification:'Savoye LET'"
           id="path5186" />
        <path
           d="m 48.983124,104.06502 0.09302,0.0775 q -0.320393,0.42374 -0.625283,0.61495 -0.30489,0.18603 -0.656288,0.18603 -0.418578,0 -0.671792,-0.27905 -0.253213,-0.27905 -0.253213,-0.73897 0,-0.46509 0.242878,-0.94051 0.248046,-0.48059 0.614948,-0.79065 0.372069,-0.31522 0.733803,-0.31522 0.211872,0 0.346231,0.12402 0.139525,0.12403 0.139525,0.32039 0,0.39791 -0.43408,0.79582 -0.434081,0.39791 -1.183387,0.67696 -0.0052,0.0413 -0.0052,0.093 0,0.35656 0.196369,0.58394 0.19637,0.22221 0.506428,0.22221 0.242878,0 0.470254,-0.14987 0.227376,-0.15502 0.485757,-0.48058 z m -1.653641,-0.39274 q 0.558104,-0.24805 0.857826,-0.55294 0.201538,-0.20671 0.325561,-0.44442 0.124023,-0.23771 0.124023,-0.42891 0,-0.24288 -0.222208,-0.24288 -0.335896,0 -0.682127,0.53227 -0.341063,0.5271 -0.403075,1.13688 z"
           style="font-style:normal;font-variant:normal;font-weight:normal;font-stretch:normal;font-family:'Savoye LET';-inkscape-font-specification:'Savoye LET'"
           id="path5188" />
        <path
           d="m 51.603111,104.09085 q -0.315226,0.44442 -0.614948,0.65112 -0.294555,0.20154 -0.656289,0.20154 -0.397907,0 -0.651121,-0.27905 -0.248046,-0.27905 -0.248046,-0.72347 0,-0.46508 0.242879,-0.94567 0.242878,-0.48059 0.620115,-0.79582 0.382404,-0.31522 0.733803,-0.31522 0.237711,0 0.382404,0.13435 0.144694,0.1292 0.144694,0.3514 0,0.20154 -0.155029,0.38758 -0.149861,0.18086 -0.32556,0.18086 -0.07752,0 -0.139526,-0.062 0.335895,-0.14986 0.335895,-0.5581 0,-0.1447 -0.07751,-0.22221 -0.07235,-0.0827 -0.19637,-0.0827 -0.191202,0 -0.387572,0.15503 -0.191202,0.15502 -0.361734,0.43408 -0.170531,0.27388 -0.268716,0.58911 -0.09302,0.31005 -0.09302,0.63045 0,0.3824 0.180867,0.62011 0.180867,0.23771 0.475422,0.23771 0.253214,0 0.490925,-0.16019 0.23771,-0.1602 0.496092,-0.49093 z"
           style="font-style:normal;font-variant:normal;font-weight:normal;font-stretch:normal;font-family:'Savoye LET';-inkscape-font-specification:'Savoye LET'"
           id="path5190" />
        <path
           d="m 53.003538,101.84294 -0.501259,1.99987 q -0.06718,0.26871 -0.06718,0.45475 0,0.18087 0.113688,0.28939 0.113688,0.10852 0.294555,0.10852 0.439248,0 0.91467,-0.7183 l 0.02067,-0.031 q 0.01034,-0.0517 0.0155,-0.0827 l 0.325561,-1.80867 0.506427,-0.21187 -0.454751,1.70014 q -0.113688,0.41858 -0.113688,0.6718 0,0.16536 0.05684,0.26871 0.05684,0.10336 0.149861,0.10336 0.160197,0 0.511595,-0.38241 l 0.08268,0.0724 -0.05168,0.0568 q -0.294555,0.34623 -0.43408,0.47026 -0.139526,0.11885 -0.258382,0.11885 -0.160196,0 -0.273884,-0.1602 -0.10852,-0.16536 -0.10852,-0.40824 0,-0.0775 0.0052,-0.14469 -0.537433,0.71313 -1.064531,0.71313 -0.263549,0 -0.423745,-0.14986 -0.155029,-0.15503 -0.155029,-0.40824 0,-0.19637 0.05684,-0.48059 l 0.351399,-1.82934 z"
           style="font-style:normal;font-variant:normal;font-weight:normal;font-stretch:normal;font-family:'Savoye LET';-inkscape-font-specification:'Savoye LET'"
           id="path5192" />
        <path
           d="m 57.303004,102.05481 0.506427,-0.21187 -0.423745,1.6433 q -0.07751,0.30489 -0.10852,0.48059 -0.02584,0.17053 -0.02584,0.25321 0,0.16537 0.05684,0.26872 0.05684,0.0982 0.149862,0.0982 0.160196,0 0.511595,-0.38241 l 0.08268,0.0724 -0.05168,0.0568 q -0.149861,0.1757 -0.258381,0.29456 -0.103352,0.11368 -0.175699,0.1757 -0.144694,0.11885 -0.258382,0.11885 -0.160196,0 -0.273884,-0.1602 -0.10852,-0.16019 -0.10852,-0.40824 0,-0.12919 0.03617,-0.3669 0.03617,-0.23771 0.09819,-0.57877 h -1.198889 l -0.325561,1.40042 -0.34623,0.10852 0.547768,-2.86286 0.490924,-0.21187 -0.32556,1.39009 h 1.193722 q 0.04651,-0.25322 0.09819,-0.5426 0.05168,-0.29456 0.10852,-0.63562 z"
           style="font-style:normal;font-variant:normal;font-weight:normal;font-stretch:normal;font-family:'Savoye LET';-inkscape-font-specification:'Savoye LET'"
           id="path5194" />
        <path
           d="m 58.341696,103.87381 q 0,-0.46508 0.248046,-0.925 0.253214,-0.46509 0.651121,-0.75448 0.397908,-0.28938 0.811318,-0.28938 0.43408,0 0.697629,0.28938 0.268717,0.28422 0.268717,0.73897 0,0.4961 -0.248046,0.96118 -0.242879,0.46509 -0.645954,0.76481 -0.397907,0.29456 -0.806149,0.29456 -0.439249,0 -0.707965,-0.29456 -0.268717,-0.29972 -0.268717,-0.78548 z m 2.211744,-1.13687 q 0,-0.31006 -0.155028,-0.5116 -0.149861,-0.20154 -0.387572,-0.20154 -0.217041,0 -0.418578,0.13953 -0.19637,0.13952 -0.361734,0.40824 -0.186035,0.31006 -0.310058,0.72347 -0.118855,0.41341 -0.118855,0.7338 0,0.38241 0.149861,0.58911 0.149861,0.20671 0.428913,0.20671 0.449584,0 0.790647,-0.62529 0.175699,-0.32039 0.279052,-0.7183 0.103352,-0.3979 0.103352,-0.74413 z"
           style="font-style:normal;font-variant:normal;font-weight:normal;font-stretch:normal;font-family:'Savoye LET';-inkscape-font-specification:'Savoye LET'"
           id="path5196" />
      </g>
    </g>
  </g>
</svg>
