<?xml version="1.0" encoding="UTF-8" standalone="no"?>
<svg
   xmlns:dc="http://purl.org/dc/elements/1.1/"
   xmlns:cc="http://creativecommons.org/ns#"
   xmlns:rdf="http://www.w3.org/1999/02/22-rdf-syntax-ns#"
   xmlns:svg="http://www.w3.org/2000/svg"
   xmlns="http://www.w3.org/2000/svg"
   xmlns:sodipodi="http://sodipodi.sourceforge.net/DTD/sodipodi-0.dtd"
   xmlns:inkscape="http://www.inkscape.org/namespaces/inkscape"
   width="25"
   height="29.058481"
   viewBox="0 0 6.6145832 7.68839"
   version="1.1"
   id="svg2421"
   inkscape:version="1.0.2 (e86c8708, 2021-01-15)"
   sodipodi:docname="supergeroi3-head-mini-2.svg">
  <defs
     id="defs2415" />
  <sodipodi:namedview
     id="base"
     pagecolor="#ffffff"
     bordercolor="#666666"
     borderopacity="1.0"
     inkscape:pageopacity="0.0"
     inkscape:pageshadow="2"
     inkscape:zoom="9.8248374"
     inkscape:cx="15"
     inkscape:cy="17.435087"
     inkscape:document-units="px"
     inkscape:current-layer="layer1"
     inkscape:document-rotation="0"
     showgrid="false"
     inkscape:window-width="1440"
     inkscape:window-height="900"
     inkscape:window-x="0"
     inkscape:window-y="0"
     inkscape:window-maximized="0"
     units="px"
     fit-margin-top="0"
     fit-margin-left="0"
     fit-margin-right="0"
     fit-margin-bottom="0" />
  <metadata
     id="metadata2418">
    <rdf:RDF>
      <cc:Work
         rdf:about="">
        <dc:format>image/svg+xml</dc:format>
        <dc:type
           rdf:resource="http://purl.org/dc/dcmitype/StillImage" />
        <dc:title></dc:title>
      </cc:Work>
    </rdf:RDF>
  </metadata>
  <g
     inkscape:label="Layer 1"
     inkscape:groupmode="layer"
     id="layer1"
     transform="translate(-41.754582,-21.72605)">
    <g
       id="g5750"
       transform="matrix(0.12414594,0,0,0.12414594,36.57092,19.028849)">
      <g
         id="g3360"
         transform="matrix(0.26458333,0,0,0.26458333,-124.35354,8.35327)">
        <path
           fill="#fbab19"
           d="m 737.7,236.3 c -0.4,-1.3 -1.4,-2.4 -2.7,-2.9 -6.3,-2.3 -13.8,-1.9 -20.1,-0.8 -11.1,1.9 -21,-0.2 -32.9,8.4 -13.9,10 -28.6,21.4 -44.2,28.5 -2.4,1.1 -4.8,2.1 -7.2,3 -3.2,1.2 -3.8,5.6 -1,7.5 4,2.8 -1.8,-4.6 0,0 75.15106,-0.41317 27.10338,0.20786 129.72417,4.59881 C 773.91572,285.22315 744.21496,259.37179 737.7,236.3 Z"
           id="path3358"
           sodipodi:nodetypes="cccccsccsc" />
      </g>
      <path
         fill="#e03b7f"
         d="m 70.856041,73.070353 c 1.005417,-0.79375 2.248958,-0.47625 3.069167,0.370416 2.672291,2.751667 6.958541,8.138761 7.672916,9.75272 l -5.693581,0.131292 c -0.767291,-1.693333 -2.85246,-1.020471 -3.566835,-2.713805 -0.370417,-0.873125 0.07937,-1.74625 -0.396875,-2.566458 -0.02646,-0.02646 -0.02646,-0.07937 -0.05292,-0.105833 -0.02646,-0.02646 -0.05292,-0.07937 -0.105833,-0.15875 -0.105834,-0.185209 -0.238125,-0.343959 -0.343959,-0.529167 -0.291041,-0.396875 -0.608541,-0.767292 -0.9525,-1.11125 -0.820208,-0.846667 -0.502708,-2.38125 0.370417,-3.069166 z"
         id="path3370"
         style="stroke-width:0.264583"
         sodipodi:nodetypes="scccccscccss" />
      <path
         fill="#e03b7f"
         d="m 60.246249,72.779311 c -0.926041,-0.926042 -2.2225,-0.767292 -3.175,0 -3.069166,2.460625 -6.745982,8.151248 -7.672023,9.712289 l 6.512836,0.148863 c 0.978958,-1.613958 1.000437,-0.733032 1.952937,-2.373449 0.47625,-0.846667 0.132292,-1.772708 0.714375,-2.566458 0.02646,-0.02646 0.05292,-0.07937 0.05292,-0.07937 0.02646,-0.02646 0.05292,-0.07937 0.132292,-0.132292 0.132291,-0.15875 0.291041,-0.3175 0.423333,-0.47625 0.343958,-0.370417 0.714375,-0.714375 1.084792,-1.031875 0.926041,-0.79375 0.767291,-2.407708 -0.02646,-3.201458 z"
         id="path3374"
         style="stroke-width:0.264583"
         sodipodi:nodetypes="sccccccccsss" />
      <path
         fill="#ef4f8c"
         d="m 73.687083,73.440769 c -0.3175,-0.529166 -0.687917,-1.058333 -1.217084,-1.375833 -0.529166,-0.3175 -1.164166,-0.396875 -1.772708,-0.449792 -3.81,-0.343958 -7.646458,-0.264583 -11.456458,0.238125 -0.582084,0.07937 -1.190625,0.185209 -1.640417,0.555625 -0.608542,0.529167 -0.714375,1.375834 -0.79375,2.169583 -1.085261,3.746207 -2.343065,6.848213 -0.894604,8.061986 0,0 6.388372,0.632777 9.830317,0.709478 4.096835,0.0913 9.294078,0.48806 10.162164,-0.02516 0,0 1.285524,-2.843029 -2.21746,-9.884009 z"
         id="path3376"
         style="stroke-width:0.264583"
         sodipodi:nodetypes="csccccsssc" />
      <path
         fill="#fbab19"
         d="m 73.448958,73.070353 c 0.07937,-0.15875 0,-0.343959 -0.07937,-0.502709 -0.423334,-0.820208 -1.217084,-1.402291 -2.06375,-1.772708 -0.846667,-0.370417 -1.772709,-0.529167 -2.69875,-0.635 -3.518959,-0.423333 -7.196667,-0.211667 -10.4775,1.164167 -0.449792,0.185208 -0.978959,0.529166 -0.873125,1.031875 0.02646,0.211666 0.185208,0.370416 0.370416,0.502708 0.3175,0.211667 0.661459,0.291042 1.031875,0.370417 4.736042,1.084791 9.736667,1.640416 14.366875,0.15875 0.15875,-0.07938 0.343959,-0.15875 0.423334,-0.3175 z"
         id="path3378"
         style="stroke-width:0.264583" />
      <g
         id="g3414"
         transform="matrix(0.26458333,0,0,0.26458333,-124.35354,8.35327)">
        <path
           fill="#441211"
           d="m 731.3,96.9 c -4.1,-2.2 -8.6,-4.2 -11,-8.1 -2.1,-3.4 -2.2,-7.6 -1.6,-11.5 2.7,-16 19,-28.3 35.1,-26.6 11.3,1.2 21.3,8.5 28.1,17.7 6.7,9.2 10.5,20.2 13.5,31.2 2,7.3 3.8,15.1 9,20.7 6,6.4 16.1,8.4 24.1,4.8 2.8,9.1 -3.4,18.6 -10.8,24.5 -8.3,6.6 -19.8,10.7 -29.6,6.7 -8.3,-3.4 -13.4,-11.5 -18.2,-19 -10.3,-15.9 -22.1,-31.4 -38.6,-40.4 z"
           id="path3380" />
        <path
           fill="#ffce06"
           d="m 740,85.2 c 0,8.1 -6.7,14.6 -14.9,14.6 -8.2,0 -14.9,-6.5 -14.9,-14.6 0,-8.1 0,-14.6 14.9,-14.6 13.5,0 14.9,6.5 14.9,14.6 z"
           id="path3382" />
        <path
           fill="#5b1212"
           d="m 793.3,158.6 c 0,41.7 -32.5,75.5 -72.6,75.5 -40.1,0 -72.6,-33.8 -72.6,-75.5 0,-41.7 22.1,-75.5 72.6,-75.5 51.1,0 72.6,33.8 72.6,75.5 z"
           id="path3384" />
        <g
           id="g3406">
          <g
             id="g3392">
            <path
               fill="#fbc7b1"
               d="m 789.4,188.8 c 0,-0.1 0,-0.2 0,-0.3 -0.5,-3.8 -3.5,-6.6 -7.1,-6.8 0.4,-2.8 0.6,-5.7 0.6,-8.6 -0.6,-0.3 -1,-1.3 -1.1,-2.5 1.8,-3.6 0.9,-8.6 0.1,-12.3 -1.2,-5.8 -3.7,-10.8 -7.3,-15.4 -1.1,-2.3 -2.3,-4.6 -3.5,-6.7 -5.3,-8.8 -13.1,-16.2 -22.2,-21.1 -9.7,-5.2 -21.7,-7.5 -32.7,-6.6 -5.7,0.4 -13.4,-0.2 -17.8,3.8 -0.2,-0.3 -0.4,-0.6 -0.5,-1 0,-0.1 0,-0.1 -0.1,-0.2 -0.2,-0.6 -12.2,5.8 -13.2,6.5 -4.2,2.7 -8.2,6 -11.6,9.6 -3.4,3.6 -6.4,7.6 -8.9,11.8 -1.3,2.2 -4.6,2.9 -5.7,5.2 -1.5,3 -1.9,6.9 -3.5,9.8 -0.7,1.2 -0.9,3.3 0.3,3.5 v 0.1 c 0,2.6 0.1,5.1 0.2,7.5 -0.1,1.1 -0.2,2.3 -0.3,3.4 -0.1,0 -0.1,0 -0.2,0 -4.2,0.5 -7.1,4.4 -6.6,8.7 0.5,4 3.9,6.9 7.7,6.8 5.1,28.8 28.3,50.1 55.9,53.4 l 0.2,1.6 c 0.3,2.2 4.9,4 11,3.5 0,0 11.3,-2.2 11,-5.2 l -0.2,-1.2 c 20.9,-5 37.3,-20.2 44.7,-39.6 1.3,0.6 2.8,0.9 4.3,0.7 3.1,-0.4 5.5,-2.6 6.3,-5.4 0.3,-0.6 0.4,-1.4 0.4,-2.2 -0.1,-0.3 -0.2,-0.6 -0.2,-0.8 z"
               id="path3386" />
            <circle
               fill="#fbc7b1"
               cx="658.20001"
               cy="179.89999"
               r="12"
               id="circle3388" />
            <circle
               fill="#fbc7b1"
               cx="778.90002"
               cy="191.2"
               r="12"
               id="circle3390" />
          </g>
          <path
             fill="#603913"
             d="m 685,163.8 c -3.2,0 -6.3,1.3 -8.6,3.6 -1.6,1.6 -2.7,3.6 -3.3,5.8 -0.9,-0.2 -1.8,-0.6 -2.5,-1.3 -0.6,-0.5 -1.5,-0.5 -2,0 -0.5,0.6 -0.5,1.5 0,2 1.1,1.1 2.6,1.8 4.1,2 0,0.1 0,0.2 0,0.3 0,0.8 0.6,1.4 1.4,1.4 0.8,0 1.4,-0.6 1.4,-1.4 0,-0.4 0,-0.7 0.1,-1.1 0.1,-0.2 0.1,-0.4 0.1,-0.6 0,0 0,0 0,0 0.3,-1.9 1.2,-3.7 2.6,-5.1 1.8,-1.8 4.1,-2.7 6.5,-2.7 5.2,0 9.4,4.3 9.4,9.6 0,0.8 0.6,1.4 1.4,1.4 0.1,0 0.1,0 0.2,0 0.7,-0.1 1.3,-0.7 1.3,-1.4 0.1,-6.9 -5.4,-12.5 -12.1,-12.5 z"
             id="path3394" />
          <path
             fill="#603913"
             d="m 768.5,175.2 c -0.1,-0.8 -0.9,-1.3 -1.7,-1.1 -0.8,0.1 -1.7,0.1 -2.5,-0.1 0,0 -0.1,0 -0.1,0 -1.1,-5.8 -6.1,-10.1 -12,-10.2 -3.2,0 -6.3,1.3 -8.6,3.6 -2.4,2.4 -3.6,5.5 -3.6,8.9 0,0.8 0.6,1.4 1.4,1.4 0.8,0 1.4,-0.6 1.4,-1.4 0,-2.6 1,-5 2.8,-6.9 1.8,-1.8 4.1,-2.7 6.6,-2.7 5.2,0 9.4,4.3 9.4,9.6 0,0.8 0.6,1.4 1.4,1.4 0.1,0 0.1,0 0.2,0 0.5,-0.1 0.9,-0.4 1.1,-0.8 0.8,0.1 1.7,0.2 2.5,0.1 0.2,0 0.4,0 0.6,-0.1 0.8,-0.2 1.3,-0.9 1.1,-1.7 z"
             id="path3396" />
          <g
             id="g3400">
            <path
               fill="#c97050"
               d="m 717,185.4 c 1.2,-0.1 0.9,-1.9 -0.2,-1.8 -4,0.3 -6.8,3.3 -6.5,7.5 0.3,4.2 4.1,6.8 8,6.4 1.1,-0.1 0.9,-1.9 -0.2,-1.8 -3,0.3 -5.5,-1.5 -6,-4.6 -0.6,-3.3 1.8,-5.5 4.9,-5.7 z"
               id="path3398" />
          </g>
          <ellipse
             transform="matrix(0.9999,-0.01313117,0.01313117,0.9999,-2.4805,8.9224)"
             fill="#f6a2b3"
             cx="678.20001"
             cy="193.39999"
             rx="10"
             ry="7"
             id="ellipse3402" />
          <ellipse
             transform="matrix(0.9999,-0.01313117,0.01313117,0.9999,-2.4455,9.9694)"
             fill="#f6a2b3"
             cx="758"
             cy="191.2"
             rx="10"
             ry="7"
             id="ellipse3404" />
        </g>
        <g
           id="g3410">
          <path
             fill="#9e1d50"
             d="m 785.4,155.5 c -1.7,-7.8 -30.7,-4.5 -42.9,-2.4 -10.9,1.8 -22.9,8.3 -34,4.8 -4,-2.5 -9.8,-3 -13.4,-3.5 -8.9,-1.1 -42.2,-6.5 -44,1.2 -1.1,4.9 -1.8,14.4 -0.5,19 1.5,5.2 4.6,9.6 8.9,12 10,5.5 23.9,6 35,4.2 4.9,-0.8 9.9,-2.6 13.5,-6.7 2.7,-3.1 4.4,-7.7 6.3,-11.3 1.5,-2.8 2.8,-5 6.1,-4 2.8,0.9 3.5,4.4 4.1,6.8 0.7,3.2 1.8,5.8 4.1,8.4 3.6,4.1 8.6,5.9 13.5,6.7 11.1,1.7 25,1.2 35,-4.4 4.3,-2.4 7.4,-6.8 8.9,-12 1.3,-4.4 0.5,-13.9 -0.6,-18.8 z m -103.2,29.7 c -13,-0.4 -23.4,-6.1 -23.2,-14.1 0.3,-9.5 11,-13.1 24,-12.7 13,0.4 23.5,4.7 23.2,14.1 -0.2,8 -10.9,13 -24,12.7 z m 72.6,0.3 c -13.5,0.3 -24.6,-5 -24.8,-13.3 -0.2,-9.8 10.6,-14.1 24.1,-14.4 13.5,-0.3 24.5,3.5 24.8,13.3 0.2,8.3 -10.6,14.1 -24.1,14.4 z"
             id="path3408" />
        </g>
        <path
           fill="#5b1212"
           d="m 690.3,146 c 12.8,0.9 25.6,1.1 38.4,0.8 1.5,-8.9 2.2,-18 2.2,-27.1 2.9,8.9 4.7,18.2 5.2,27.6 14.7,3.3 28,1.3 40.7,-1.2 0.8,-0.2 1.7,-0.1 2.4,-0.6 1,-0.7 1.1,-2.1 1.2,-3.3 0.3,-15.2 -9.4,-29.5 -22.3,-37.6 -12.9,-8.1 -28.6,-10.8 -43.8,-10.9 -10.1,0 -20.3,1 -29.6,4.9 -9.3,3.9 -17.6,10.8 -21.5,20 -3.4,8 -6.8,19.4 -8.5,28 9.2,2.4 19.6,1.4 29.3,-0.4 1.1,-9.7 3.9,-19.2 8.3,-27.9 -0.7,9.3 -1.4,18.5 -2,27.7 z"
           id="path3412" />
      </g>
      <g
         id="g3426"
         transform="matrix(0.26458333,0,0,0.26458333,-124.35354,8.35327)">
        <path
           fill="#ffce06"
           d="m 724.1,256.9 c 2.3,-2.4 4.3,-6.1 2.9,-9.1 -0.8,-1.6 -2.4,-2.6 -4,-2.9 -1.6,-0.3 -3.3,-1.1 -5,-0.7 -4,0.8 -8,1.8 -11.4,4.4 -4.6,3.5 -8.4,9.4 -9.7,15.8 -0.2,0.9 0.3,1.8 1.2,1.8 9.3,-0.1 19.1,-2.2 26,-9.3 z"
           id="path3416" />
        <path
           fill="#fbab19"
           d="m 719.5,249.5 c -3.9,0.8 -7.5,2.4 -10.4,4.8 -1.2,1 0.5,2.6 1.6,1.6 2.5,-2.1 5.7,-3.5 9.1,-4.2 -0.2,-0.7 -0.3,-1.4 -0.3,-2.2 z"
           id="path3418" />
        <path
           fill="#f69e1d"
           d="m 731.2,247 c 0,-0.1 0,-0.1 0,-0.2 -0.1,-1.6 -0.6,-3.2 -1.4,-4.2 -1.1,-1.4 -3.8,-1.6 -6.1,-1.1 -1.6,0 -3.3,0.3 -4.6,1.3 -2.2,1.8 -1.9,5 -1.5,7.5 0.9,5.3 7.9,8 11.8,3.9 1.8,-1.9 2.2,-4.8 1.8,-7.2 z"
           id="path3420" />
        <path
           fill="#ffce06"
           d="m 758.3,259.5 c -2.1,-6.1 -6.7,-11.4 -11.8,-14.1 -3.7,-2 -7.9,-2.4 -12,-2.6 -3.7,-0.1 -8.4,2.1 -8.4,6.4 0,1.1 0.2,2.1 0.5,3.1 0.8,1.6 2.2,3 3.6,4.1 7.9,5.9 17.8,6.5 27.1,5.2 1,-0.2 1.3,-1.2 1,-2.1 z"
           id="path3422" />
        <path
           fill="#fbab19"
           d="m 738.5,250.9 c -3.7,-1.4 -8,-2.2 -12.4,-2.2 0,0.1 0,0.3 0,0.4 0,0.7 0.1,1.3 0.2,1.9 4.1,0 8.1,0.8 11.6,2.1 1.4,0.6 2,-1.6 0.6,-2.2 z"
           id="path3424" />
      </g>
      <line
         fill="none"
         x1="55.98645"
         y1="73.255562"
         x2="55.98645"
         y2="73.282021"
         id="line3430"
         style="stroke-width:0.264583" />
      <path
         fill="#c97050"
         d="m 70.591458,63.360144 c -1.719792,2.2225 -4.577292,2.69875 -7.064375,1.561042 -0.185209,-0.07937 -0.343959,0.15875 -0.15875,0.291042 2.54,1.534583 5.820833,0.740833 7.62,-1.561042 0.211666,-0.291042 -0.185209,-0.582083 -0.396875,-0.291042 z"
         id="path3448"
         style="stroke-width:0.264583" />
    </g>
  </g>
</svg>
